<svg width="370" height="384" viewBox="0 0 370 384" fill="none" xmlns="http://www.w3.org/2000/svg">
<path d="M0 60.6595C0 50.5414 0 45.4824 0.737088 41.259C4.32577 20.6968 20.4273 4.59531 40.9895 1.00662C45.2128 0.269531 50.2719 0.269531 60.39 0.269531H309.61C319.728 0.269531 324.787 0.269531 329.01 1.00662C349.573 4.59531 365.674 20.6968 369.263 41.259C370 45.4824 370 50.5414 370 60.6595V322.88C370 332.998 370 338.057 369.263 342.28C365.674 362.842 349.573 378.944 329.01 382.532C324.787 383.27 319.728 383.27 309.61 383.27H6.10001C5.07797 383.27 4.56695 383.27 4.14035 383.195C2.06336 382.833 0.436947 381.206 0.0744534 379.129C0 378.703 0 378.192 0 377.17V60.6595Z" fill="#FFE6E0"/>
<circle cx="185" cy="86.2695" r="51" fill="#FCFCFC"/>
<path d="M182.748 60.6425C176.286 61.869 171.906 68.0325 172.874 74.5156C173.112 76.041 173.647 77.6077 174.369 78.8239C174.544 79.1228 174.688 79.3908 174.688 79.4114C174.688 79.4423 172.668 79.4629 170.205 79.4629C167.144 79.4629 165.649 79.5041 165.484 79.5763C165.34 79.6381 165.175 79.803 165.113 79.9473C165.041 80.1122 165 81.4418 165 84.0598V87.9249L165.258 88.1722C165.484 88.4093 165.587 88.4299 166.484 88.4299H167.463L167.494 90.8108C167.525 93.1711 167.525 93.1917 167.773 93.3875C168.092 93.6452 168.649 93.6452 168.917 93.3772C169.112 93.1814 169.123 93.0371 169.123 90.8005V88.4299H184.995H200.868V90.8005C200.868 93.0371 200.878 93.1814 201.074 93.3772C201.342 93.6452 201.899 93.6452 202.218 93.3875C202.466 93.1917 202.466 93.1711 202.497 90.8108L202.527 88.4299H203.507C204.403 88.4299 204.506 88.4093 204.733 88.1722L204.991 87.9249V84.0598C204.991 81.4418 204.95 80.1122 204.877 79.9473C204.816 79.803 204.651 79.6381 204.506 79.5763C204.341 79.5041 202.847 79.4629 199.786 79.4629C197.322 79.4629 195.302 79.4423 195.302 79.4217C195.302 79.3908 195.467 79.0919 195.663 78.7517C197.889 74.9588 197.735 69.8053 195.271 66.0227C194.076 64.1984 192.324 62.6626 190.314 61.6835C188.551 60.828 187.5 60.5806 185.305 60.5394C184.057 60.5188 183.264 60.5497 182.748 60.6425ZM187.005 62.3122C188.881 62.6729 190.705 63.6006 192.128 64.9199C193.148 65.8681 193.808 66.7339 194.406 67.8986C195.271 69.5992 195.56 70.8257 195.55 72.815C195.539 74.0209 195.488 74.4228 195.261 75.2886C194.962 76.443 194.179 78.1127 193.581 78.896L193.179 79.4114L191.664 79.4423L190.149 79.4732L190.901 78.7208C192.674 76.9583 193.54 74.732 193.406 72.2996C193.272 69.6816 192.117 67.5069 190.056 65.9402C188.593 64.8374 186.974 64.3117 184.995 64.3117C183.016 64.3117 181.398 64.8374 179.935 65.9402C177.873 67.5069 176.719 69.6816 176.585 72.2996C176.451 74.732 177.317 76.9583 179.09 78.7208L179.842 79.4732L178.327 79.4423L176.812 79.4114L176.41 78.896C175.812 78.1127 175.029 76.443 174.73 75.2886C174.503 74.4228 174.451 74.0209 174.441 72.815C174.431 70.9082 174.709 69.6301 175.492 68.0738C176.039 66.9709 176.513 66.301 177.42 65.3631C179.893 62.776 183.46 61.6423 187.005 62.3122ZM186.593 66.1258C188.809 66.6514 190.716 68.4242 191.448 70.6608C191.705 71.4647 191.746 71.7224 191.736 72.7634C191.736 73.7838 191.695 74.0621 191.448 74.7733C191.066 75.8761 190.551 76.7007 189.737 77.5046C188.953 78.2776 188.211 78.7414 187.139 79.1331C186.459 79.3805 186.243 79.4114 184.995 79.4114C183.748 79.4114 183.532 79.3805 182.852 79.1331C181.78 78.7414 181.038 78.2776 180.254 77.4943C179.461 76.7213 178.914 75.8349 178.523 74.732C178.286 74.0518 178.255 73.7838 178.255 72.7119C178.255 71.6503 178.296 71.3617 178.543 70.6299C179.11 68.8983 180.399 67.4244 182.058 66.6308C183.583 65.8887 184.964 65.7444 186.593 66.1258ZM203.342 83.9464V86.7808H184.995H166.649V83.9464V81.112H184.995H203.342V83.9464Z" fill="#C0304F"/>
<path d="M184.47 67.3935C184.284 67.5481 184.212 67.7233 184.171 68.1768C184.119 68.754 184.109 68.7643 183.717 68.8983C182.748 69.2281 182.213 69.9496 182.14 70.9803C182.099 71.609 182.12 71.743 182.388 72.2378C182.563 72.5676 182.852 72.918 183.12 73.1138C183.532 73.4024 183.645 73.4334 184.614 73.4849C185.191 73.5158 185.768 73.5983 185.892 73.6704C186.377 73.9384 186.284 74.732 185.758 74.9279C185.614 74.9897 184.841 75.0309 184.027 75.0309C182.625 75.0309 182.542 75.0412 182.336 75.268C182.058 75.5669 182.048 76.0616 182.305 76.3811C182.481 76.5976 182.615 76.6285 183.336 76.6594L184.171 76.7007V77.216C184.171 77.8344 184.49 78.2261 184.995 78.2261C185.521 78.2261 185.82 77.8344 185.82 77.1438C185.82 76.6182 185.841 76.577 186.057 76.577C186.377 76.577 187.18 76.0616 187.438 75.6906C187.943 74.9588 188.015 74.0415 187.634 73.2066C187.191 72.2584 186.325 71.8358 184.841 71.8358C184.305 71.8358 184.13 71.7946 183.965 71.6297C183.686 71.3514 183.707 70.9494 184.016 70.6505C184.253 70.4031 184.305 70.3928 185.851 70.3928C187.376 70.3928 187.438 70.3825 187.655 70.1558C187.964 69.8259 187.953 69.3209 187.624 69.0014C187.407 68.7746 187.284 68.7437 186.593 68.7437H185.82V68.2284C185.82 67.8058 185.768 67.6512 185.562 67.4554C185.263 67.1461 184.8 67.1152 184.47 67.3935Z" fill="#C0304F"/>
<path d="M179.378 93.1608C176.884 93.8823 175.389 96.459 175.967 99.0666C176.265 100.417 176.523 100.726 180.759 104.962C184.356 108.559 184.666 108.838 184.995 108.838C185.325 108.838 185.634 108.559 189.201 104.993C191.314 102.89 193.179 100.953 193.344 100.705C194.333 99.2212 194.426 97.0877 193.571 95.5004C193.21 94.8511 192.282 93.9235 191.623 93.5627C190.2 92.7794 188.345 92.7691 186.851 93.5318C186.572 93.6761 186.036 94.0781 185.665 94.4182L184.995 95.0572L184.346 94.4388C183.305 93.4391 182.12 92.9546 180.718 92.9753C180.326 92.9753 179.718 93.0577 179.378 93.1608ZM181.976 94.8305C182.439 95.016 182.769 95.2634 183.583 96.0467C184.975 97.3969 185.016 97.3969 186.407 96.0467C187.655 94.8305 188.221 94.5625 189.376 94.6347C190.602 94.7171 191.592 95.3768 192.179 96.5002C192.427 96.964 192.468 97.1599 192.468 97.9123C192.468 99.3552 192.447 99.3861 188.448 103.375L184.995 106.828L181.501 103.323C177.544 99.3449 177.533 99.3243 177.523 97.9638C177.523 97.2835 177.574 97.0362 177.791 96.5724C178.203 95.6963 179.028 94.9954 179.945 94.7068C180.46 94.5522 181.367 94.6141 181.976 94.8305Z" fill="#C0304F"/>
<path d="M167.721 95.8612C167.536 96.0674 167.525 96.3663 167.525 104.457C167.525 112.548 167.536 112.847 167.721 113.053L167.917 113.27H184.995H202.074L202.27 113.053C202.455 112.847 202.466 112.548 202.466 104.457C202.466 96.3663 202.455 96.0674 202.27 95.8612C202.002 95.5726 201.363 95.5623 201.074 95.8509C200.868 96.0571 200.868 96.191 200.868 103.89V111.724H184.995H169.123V103.89C169.123 96.191 169.123 96.0571 168.917 95.8509C168.628 95.5623 167.989 95.5726 167.721 95.8612Z" fill="#C0304F"/>
<path d="M34.0708 224.43V236.27H32.6148V224.43H34.0708ZM40.3763 236.414C39.555 236.414 38.8083 236.227 38.1363 235.854C37.475 235.48 36.9523 234.952 36.5683 234.27C36.195 233.576 36.0083 232.776 36.0083 231.87C36.0083 230.974 36.2003 230.184 36.5843 229.502C36.979 228.808 37.5123 228.28 38.1843 227.918C38.8563 227.544 39.6083 227.358 40.4403 227.358C41.2723 227.358 42.0243 227.544 42.6963 227.918C43.3683 228.28 43.8963 228.803 44.2803 229.486C44.675 230.168 44.8723 230.963 44.8723 231.87C44.8723 232.776 44.6696 233.576 44.2643 234.27C43.8696 234.952 43.331 235.48 42.6483 235.854C41.9656 236.227 41.2083 236.414 40.3763 236.414ZM40.3763 235.134C40.899 235.134 41.3896 235.011 41.8483 234.766C42.307 234.52 42.675 234.152 42.9523 233.662C43.2403 233.171 43.3843 232.574 43.3843 231.87C43.3843 231.166 43.2456 230.568 42.9683 230.078C42.691 229.587 42.3283 229.224 41.8803 228.99C41.4323 228.744 40.947 228.622 40.4243 228.622C39.891 228.622 39.4003 228.744 38.9523 228.99C38.515 229.224 38.163 229.587 37.8963 230.078C37.6296 230.568 37.4963 231.166 37.4963 231.87C37.4963 232.584 37.6243 233.187 37.8803 233.678C38.147 234.168 38.499 234.536 38.9363 234.782C39.3736 235.016 39.8536 235.134 40.3763 235.134ZM51.0587 227.342C52.1254 227.342 52.9894 227.667 53.6507 228.318C54.312 228.958 54.6427 229.886 54.6427 231.102V236.27H53.2027V231.31C53.2027 230.435 52.984 229.768 52.5467 229.31C52.1094 228.84 51.512 228.606 50.7547 228.606C49.9867 228.606 49.3734 228.846 48.9147 229.326C48.4667 229.806 48.2427 230.504 48.2427 231.422V236.27H46.7867V227.502H48.2427V228.75C48.5307 228.302 48.92 227.955 49.4107 227.71C49.912 227.464 50.4614 227.342 51.0587 227.342ZM60.6371 227.358C61.3944 227.358 62.0557 227.523 62.6211 227.854C63.1971 228.184 63.6237 228.6 63.9011 229.102V227.502H65.3731V236.462C65.3731 237.262 65.2024 237.971 64.8611 238.59C64.5197 239.219 64.0291 239.71 63.3891 240.062C62.7597 240.414 62.0237 240.59 61.1811 240.59C60.0291 240.59 59.0691 240.318 58.3011 239.774C57.5331 239.23 57.0797 238.488 56.9411 237.55H58.3811C58.5411 238.083 58.8717 238.51 59.3731 238.83C59.8744 239.16 60.4771 239.326 61.1811 239.326C61.9811 239.326 62.6317 239.075 63.1331 238.574C63.6451 238.072 63.9011 237.368 63.9011 236.462V234.622C63.6131 235.134 63.1864 235.56 62.6211 235.902C62.0557 236.243 61.3944 236.414 60.6371 236.414C59.8584 236.414 59.1491 236.222 58.5091 235.838C57.8797 235.454 57.3837 234.915 57.0211 234.222C56.6584 233.528 56.4771 232.739 56.4771 231.854C56.4771 230.958 56.6584 230.174 57.0211 229.502C57.3837 228.819 57.8797 228.291 58.5091 227.918C59.1491 227.544 59.8584 227.358 60.6371 227.358ZM63.9011 231.87C63.9011 231.208 63.7677 230.632 63.5011 230.142C63.2344 229.651 62.8717 229.278 62.4131 229.022C61.9651 228.755 61.4691 228.622 60.9251 228.622C60.3811 228.622 59.8851 228.75 59.4371 229.006C58.9891 229.262 58.6317 229.635 58.3651 230.126C58.0984 230.616 57.9651 231.192 57.9651 231.854C57.9651 232.526 58.0984 233.112 58.3651 233.614C58.6317 234.104 58.9891 234.483 59.4371 234.75C59.8851 235.006 60.3811 235.134 60.9251 235.134C61.4691 235.134 61.9651 235.006 62.4131 234.75C62.8717 234.483 63.2344 234.104 63.5011 233.614C63.7677 233.112 63.9011 232.531 63.9011 231.87ZM80.0992 231.55C80.0992 231.827 80.0832 232.12 80.0512 232.43H73.0432C73.0965 233.294 73.3899 233.971 73.9232 234.462C74.4672 234.942 75.1232 235.182 75.8912 235.182C76.5205 235.182 77.0432 235.038 77.4592 234.75C77.8859 234.451 78.1845 234.056 78.3552 233.566H79.9232C79.6885 234.408 79.2192 235.096 78.5152 235.63C77.8112 236.152 76.9365 236.414 75.8912 236.414C75.0592 236.414 74.3125 236.227 73.6512 235.854C73.0005 235.48 72.4885 234.952 72.1152 234.27C71.7419 233.576 71.5552 232.776 71.5552 231.87C71.5552 230.963 71.7365 230.168 72.0992 229.486C72.4619 228.803 72.9685 228.28 73.6192 227.918C74.2805 227.544 75.0379 227.358 75.8912 227.358C76.7232 227.358 77.4592 227.539 78.0992 227.902C78.7392 228.264 79.2299 228.766 79.5712 229.406C79.9232 230.035 80.0992 230.75 80.0992 231.55ZM78.5952 231.246C78.5952 230.691 78.4725 230.216 78.2272 229.822C77.9819 229.416 77.6459 229.112 77.2192 228.91C76.8032 228.696 76.3392 228.59 75.8272 228.59C75.0912 228.59 74.4619 228.824 73.9392 229.294C73.4272 229.763 73.1339 230.414 73.0592 231.246H78.5952ZM85.1251 236.414C84.4531 236.414 83.8504 236.302 83.3171 236.078C82.7837 235.843 82.3624 235.523 82.0531 235.118C81.7437 234.702 81.5731 234.227 81.5411 233.694H83.0451C83.0877 234.131 83.2904 234.488 83.6531 234.766C84.0264 235.043 84.5117 235.182 85.1091 235.182C85.6637 235.182 86.1011 235.059 86.4211 234.814C86.7411 234.568 86.9011 234.259 86.9011 233.886C86.9011 233.502 86.7304 233.219 86.3891 233.038C86.0477 232.846 85.5197 232.659 84.8051 232.478C84.1544 232.307 83.6211 232.136 83.2051 231.966C82.7997 231.784 82.4477 231.523 82.1491 231.182C81.8611 230.83 81.7171 230.371 81.7171 229.806C81.7171 229.358 81.8504 228.947 82.1171 228.574C82.3837 228.2 82.7624 227.907 83.2531 227.694C83.7437 227.47 84.3037 227.358 84.9331 227.358C85.9037 227.358 86.6877 227.603 87.2851 228.094C87.8824 228.584 88.2024 229.256 88.2451 230.11H86.7891C86.7571 229.651 86.5704 229.283 86.2291 229.006C85.8984 228.728 85.4504 228.59 84.8851 228.59C84.3624 228.59 83.9464 228.702 83.6371 228.926C83.3277 229.15 83.1731 229.443 83.1731 229.806C83.1731 230.094 83.2637 230.334 83.4451 230.526C83.6371 230.707 83.8717 230.856 84.1491 230.974C84.4371 231.08 84.8317 231.203 85.3331 231.342C85.9624 231.512 86.4744 231.683 86.8691 231.854C87.2637 232.014 87.5997 232.259 87.8771 232.59C88.1651 232.92 88.3144 233.352 88.3251 233.886C88.3251 234.366 88.1917 234.798 87.9251 235.182C87.6584 235.566 87.2797 235.87 86.7891 236.094C86.3091 236.307 85.7544 236.414 85.1251 236.414ZM92.1564 228.702V233.87C92.1564 234.296 92.2471 234.6 92.4284 234.782C92.6098 234.952 92.9244 235.038 93.3724 235.038H94.4444V236.27H93.1324C92.3218 236.27 91.7138 236.083 91.3084 235.71C90.9031 235.336 90.7004 234.723 90.7004 233.87V228.702H89.5644V227.502H90.7004V225.294H92.1564V227.502H94.4444V228.702H92.1564ZM95.6646 231.854C95.6646 230.958 95.8459 230.174 96.2086 229.502C96.5712 228.819 97.0672 228.291 97.6966 227.918C98.3366 227.544 99.0459 227.358 99.8246 227.358C100.593 227.358 101.259 227.523 101.825 227.854C102.39 228.184 102.811 228.6 103.089 229.102V227.502H104.561V236.27H103.089V234.638C102.801 235.15 102.369 235.576 101.793 235.918C101.227 236.248 100.566 236.414 99.8086 236.414C99.0299 236.414 98.3259 236.222 97.6966 235.838C97.0672 235.454 96.5712 234.915 96.2086 234.222C95.8459 233.528 95.6646 232.739 95.6646 231.854ZM103.089 231.87C103.089 231.208 102.955 230.632 102.689 230.142C102.422 229.651 102.059 229.278 101.601 229.022C101.153 228.755 100.657 228.622 100.113 228.622C99.5686 228.622 99.0726 228.75 98.6246 229.006C98.1766 229.262 97.8192 229.635 97.5526 230.126C97.2859 230.616 97.1526 231.192 97.1526 231.854C97.1526 232.526 97.2859 233.112 97.5526 233.614C97.8192 234.104 98.1766 234.483 98.6246 234.75C99.0726 235.006 99.5686 235.134 100.113 235.134C100.657 235.134 101.153 235.006 101.601 234.75C102.059 234.483 102.422 234.104 102.689 233.614C102.955 233.112 103.089 232.531 103.089 231.87ZM108.477 229.134C108.776 228.611 109.213 228.184 109.789 227.854C110.365 227.523 111.021 227.358 111.757 227.358C112.546 227.358 113.256 227.544 113.885 227.918C114.514 228.291 115.01 228.819 115.373 229.502C115.736 230.174 115.917 230.958 115.917 231.854C115.917 232.739 115.736 233.528 115.373 234.222C115.01 234.915 114.509 235.454 113.869 235.838C113.24 236.222 112.536 236.414 111.757 236.414C111 236.414 110.333 236.248 109.757 235.918C109.192 235.587 108.765 235.166 108.477 234.654V236.27H107.021V224.43H108.477V229.134ZM114.429 231.854C114.429 231.192 114.296 230.616 114.029 230.126C113.762 229.635 113.4 229.262 112.941 229.006C112.493 228.75 111.997 228.622 111.453 228.622C110.92 228.622 110.424 228.755 109.965 229.022C109.517 229.278 109.154 229.656 108.877 230.158C108.61 230.648 108.477 231.219 108.477 231.87C108.477 232.531 108.61 233.112 108.877 233.614C109.154 234.104 109.517 234.483 109.965 234.75C110.424 235.006 110.92 235.134 111.453 235.134C111.997 235.134 112.493 235.006 112.941 234.75C113.4 234.483 113.762 234.104 114.029 233.614C114.296 233.112 114.429 232.526 114.429 231.854ZM119.29 224.43V236.27H117.834V224.43H119.29ZM122.523 226.078C122.246 226.078 122.011 225.982 121.819 225.79C121.627 225.598 121.531 225.363 121.531 225.086C121.531 224.808 121.627 224.574 121.819 224.382C122.011 224.19 122.246 224.094 122.523 224.094C122.79 224.094 123.014 224.19 123.195 224.382C123.387 224.574 123.483 224.808 123.483 225.086C123.483 225.363 123.387 225.598 123.195 225.79C123.014 225.982 122.79 226.078 122.523 226.078ZM123.227 227.502V236.27H121.771V227.502H123.227ZM128.813 236.414C128.141 236.414 127.538 236.302 127.005 236.078C126.471 235.843 126.05 235.523 125.741 235.118C125.431 234.702 125.261 234.227 125.229 233.694H126.733C126.775 234.131 126.978 234.488 127.341 234.766C127.714 235.043 128.199 235.182 128.797 235.182C129.351 235.182 129.789 235.059 130.109 234.814C130.429 234.568 130.589 234.259 130.589 233.886C130.589 233.502 130.418 233.219 130.077 233.038C129.735 232.846 129.207 232.659 128.493 232.478C127.842 232.307 127.309 232.136 126.893 231.966C126.487 231.784 126.135 231.523 125.837 231.182C125.549 230.83 125.405 230.371 125.405 229.806C125.405 229.358 125.538 228.947 125.805 228.574C126.071 228.2 126.45 227.907 126.941 227.694C127.431 227.47 127.991 227.358 128.621 227.358C129.591 227.358 130.375 227.603 130.973 228.094C131.57 228.584 131.89 229.256 131.933 230.11H130.477C130.445 229.651 130.258 229.283 129.917 229.006C129.586 228.728 129.138 228.59 128.573 228.59C128.05 228.59 127.634 228.702 127.325 228.926C127.015 229.15 126.861 229.443 126.861 229.806C126.861 230.094 126.951 230.334 127.133 230.526C127.325 230.707 127.559 230.856 127.837 230.974C128.125 231.08 128.519 231.203 129.021 231.342C129.65 231.512 130.162 231.683 130.557 231.854C130.951 232.014 131.287 232.259 131.565 232.59C131.853 232.92 132.002 233.352 132.013 233.886C132.013 234.366 131.879 234.798 131.613 235.182C131.346 235.566 130.967 235.87 130.477 236.094C129.997 236.307 129.442 236.414 128.813 236.414ZM138.42 227.342C139.081 227.342 139.679 227.486 140.212 227.774C140.745 228.051 141.161 228.472 141.46 229.038C141.769 229.603 141.924 230.291 141.924 231.102V236.27H140.484V231.31C140.484 230.435 140.265 229.768 139.828 229.31C139.391 228.84 138.793 228.606 138.036 228.606C137.268 228.606 136.655 228.846 136.196 229.326C135.748 229.806 135.524 230.504 135.524 231.422V236.27H134.068V224.43H135.524V228.75C135.812 228.302 136.207 227.955 136.708 227.71C137.22 227.464 137.791 227.342 138.42 227.342ZM152.302 231.55C152.302 231.827 152.286 232.12 152.254 232.43H145.246C145.3 233.294 145.593 233.971 146.126 234.462C146.67 234.942 147.326 235.182 148.094 235.182C148.724 235.182 149.246 235.038 149.662 234.75C150.089 234.451 150.388 234.056 150.558 233.566H152.126C151.892 234.408 151.422 235.096 150.718 235.63C150.014 236.152 149.14 236.414 148.094 236.414C147.262 236.414 146.516 236.227 145.854 235.854C145.204 235.48 144.692 234.952 144.318 234.27C143.945 233.576 143.758 232.776 143.758 231.87C143.758 230.963 143.94 230.168 144.302 229.486C144.665 228.803 145.172 228.28 145.822 227.918C146.484 227.544 147.241 227.358 148.094 227.358C148.926 227.358 149.662 227.539 150.302 227.902C150.942 228.264 151.433 228.766 151.774 229.406C152.126 230.035 152.302 230.75 152.302 231.55ZM150.798 231.246C150.798 230.691 150.676 230.216 150.43 229.822C150.185 229.416 149.849 229.112 149.422 228.91C149.006 228.696 148.542 228.59 148.03 228.59C147.294 228.59 146.665 228.824 146.142 229.294C145.63 229.763 145.337 230.414 145.262 231.246H150.798ZM153.68 231.854C153.68 230.958 153.862 230.174 154.224 229.502C154.587 228.819 155.083 228.291 155.712 227.918C156.352 227.544 157.067 227.358 157.856 227.358C158.539 227.358 159.174 227.518 159.76 227.838C160.347 228.147 160.795 228.558 161.104 229.07V224.43H162.576V236.27H161.104V234.622C160.816 235.144 160.39 235.576 159.824 235.918C159.259 236.248 158.598 236.414 157.84 236.414C157.062 236.414 156.352 236.222 155.712 235.838C155.083 235.454 154.587 234.915 154.224 234.222C153.862 233.528 153.68 232.739 153.68 231.854ZM161.104 231.87C161.104 231.208 160.971 230.632 160.704 230.142C160.438 229.651 160.075 229.278 159.616 229.022C159.168 228.755 158.672 228.622 158.128 228.622C157.584 228.622 157.088 228.75 156.64 229.006C156.192 229.262 155.835 229.635 155.568 230.126C155.302 230.616 155.168 231.192 155.168 231.854C155.168 232.526 155.302 233.112 155.568 233.614C155.835 234.104 156.192 234.483 156.64 234.75C157.088 235.006 157.584 235.134 158.128 235.134C158.672 235.134 159.168 235.006 159.616 234.75C160.075 234.483 160.438 234.104 160.704 233.614C160.971 233.112 161.104 232.531 161.104 231.87ZM172.87 228.702H171.03V236.27H169.574V228.702H168.438V227.502H169.574V226.878C169.574 225.896 169.825 225.182 170.326 224.734C170.838 224.275 171.654 224.046 172.774 224.046V225.262C172.134 225.262 171.681 225.39 171.414 225.646C171.158 225.891 171.03 226.302 171.03 226.878V227.502H172.87V228.702ZM174.024 231.854C174.024 230.958 174.205 230.174 174.568 229.502C174.931 228.819 175.427 228.291 176.056 227.918C176.696 227.544 177.405 227.358 178.184 227.358C178.952 227.358 179.619 227.523 180.184 227.854C180.749 228.184 181.171 228.6 181.448 229.102V227.502H182.92V236.27H181.448V234.638C181.16 235.15 180.728 235.576 180.152 235.918C179.587 236.248 178.925 236.414 178.168 236.414C177.389 236.414 176.685 236.222 176.056 235.838C175.427 235.454 174.931 234.915 174.568 234.222C174.205 233.528 174.024 232.739 174.024 231.854ZM181.448 231.87C181.448 231.208 181.315 230.632 181.048 230.142C180.781 229.651 180.419 229.278 179.96 229.022C179.512 228.755 179.016 228.622 178.472 228.622C177.928 228.622 177.432 228.75 176.984 229.006C176.536 229.262 176.179 229.635 175.912 230.126C175.645 230.616 175.512 231.192 175.512 231.854C175.512 232.526 175.645 233.112 175.912 233.614C176.179 234.104 176.536 234.483 176.984 234.75C177.432 235.006 177.928 235.134 178.472 235.134C179.016 235.134 179.512 235.006 179.96 234.75C180.419 234.483 180.781 234.104 181.048 233.614C181.315 233.112 181.448 232.531 181.448 231.87ZM184.836 231.87C184.836 230.963 185.018 230.174 185.38 229.502C185.743 228.819 186.244 228.291 186.884 227.918C187.535 227.544 188.276 227.358 189.108 227.358C190.186 227.358 191.071 227.619 191.764 228.142C192.468 228.664 192.932 229.39 193.156 230.318H191.588C191.439 229.784 191.146 229.363 190.708 229.054C190.282 228.744 189.748 228.59 189.108 228.59C188.276 228.59 187.604 228.878 187.092 229.454C186.58 230.019 186.324 230.824 186.324 231.87C186.324 232.926 186.58 233.742 187.092 234.318C187.604 234.894 188.276 235.182 189.108 235.182C189.748 235.182 190.282 235.032 190.708 234.734C191.135 234.435 191.428 234.008 191.588 233.454H193.156C192.922 234.35 192.452 235.07 191.748 235.614C191.044 236.147 190.164 236.414 189.108 236.414C188.276 236.414 187.535 236.227 186.884 235.854C186.244 235.48 185.743 234.952 185.38 234.27C185.018 233.587 184.836 232.787 184.836 231.87ZM196.875 228.702V233.87C196.875 234.296 196.966 234.6 197.147 234.782C197.329 234.952 197.643 235.038 198.091 235.038H199.163V236.27H197.851C197.041 236.27 196.433 236.083 196.027 235.71C195.622 235.336 195.419 234.723 195.419 233.87V228.702H194.283V227.502H195.419V225.294H196.875V227.502H199.163V228.702H196.875ZM206.969 228.702V233.87C206.969 234.296 207.06 234.6 207.241 234.782C207.422 234.952 207.737 235.038 208.185 235.038H209.257V236.27H207.945C207.134 236.27 206.526 236.083 206.121 235.71C205.716 235.336 205.513 234.723 205.513 233.87V228.702H204.377V227.502H205.513V225.294H206.969V227.502H209.257V228.702H206.969ZM215.373 227.342C216.034 227.342 216.632 227.486 217.165 227.774C217.698 228.051 218.114 228.472 218.413 229.038C218.722 229.603 218.877 230.291 218.877 231.102V236.27H217.437V231.31C217.437 230.435 217.218 229.768 216.781 229.31C216.344 228.84 215.746 228.606 214.989 228.606C214.221 228.606 213.608 228.846 213.149 229.326C212.701 229.806 212.477 230.504 212.477 231.422V236.27H211.021V224.43H212.477V228.75C212.765 228.302 213.16 227.955 213.661 227.71C214.173 227.464 214.744 227.342 215.373 227.342ZM220.711 231.854C220.711 230.958 220.893 230.174 221.255 229.502C221.618 228.819 222.114 228.291 222.743 227.918C223.383 227.544 224.093 227.358 224.871 227.358C225.639 227.358 226.306 227.523 226.871 227.854C227.437 228.184 227.858 228.6 228.135 229.102V227.502H229.607V236.27H228.135V234.638C227.847 235.15 227.415 235.576 226.839 235.918C226.274 236.248 225.613 236.414 224.855 236.414C224.077 236.414 223.373 236.222 222.743 235.838C222.114 235.454 221.618 234.915 221.255 234.222C220.893 233.528 220.711 232.739 220.711 231.854ZM228.135 231.87C228.135 231.208 228.002 230.632 227.735 230.142C227.469 229.651 227.106 229.278 226.647 229.022C226.199 228.755 225.703 228.622 225.159 228.622C224.615 228.622 224.119 228.75 223.671 229.006C223.223 229.262 222.866 229.635 222.599 230.126C222.333 230.616 222.199 231.192 222.199 231.854C222.199 232.526 222.333 233.112 222.599 233.614C222.866 234.104 223.223 234.483 223.671 234.75C224.119 235.006 224.615 235.134 225.159 235.134C225.703 235.134 226.199 235.006 226.647 234.75C227.106 234.483 227.469 234.104 227.735 233.614C228.002 233.112 228.135 232.531 228.135 231.87ZM233.844 228.702V233.87C233.844 234.296 233.935 234.6 234.116 234.782C234.297 234.952 234.612 235.038 235.06 235.038H236.132V236.27H234.82C234.009 236.27 233.401 236.083 232.996 235.71C232.591 235.336 232.388 234.723 232.388 233.87V228.702H231.252V227.502H232.388V225.294H233.844V227.502H236.132V228.702H233.844ZM241.618 231.854C241.618 230.958 241.799 230.174 242.162 229.502C242.524 228.819 243.02 228.291 243.65 227.918C244.29 227.544 244.999 227.358 245.778 227.358C246.546 227.358 247.212 227.523 247.778 227.854C248.343 228.184 248.764 228.6 249.042 229.102V227.502H250.514V236.27H249.042V234.638C248.754 235.15 248.322 235.576 247.746 235.918C247.18 236.248 246.519 236.414 245.762 236.414C244.983 236.414 244.279 236.222 243.65 235.838C243.02 235.454 242.524 234.915 242.162 234.222C241.799 233.528 241.618 232.739 241.618 231.854ZM249.042 231.87C249.042 231.208 248.908 230.632 248.642 230.142C248.375 229.651 248.012 229.278 247.554 229.022C247.106 228.755 246.61 228.622 246.066 228.622C245.522 228.622 245.026 228.75 244.578 229.006C244.13 229.262 243.772 229.635 243.506 230.126C243.239 230.616 243.106 231.192 243.106 231.854C243.106 232.526 243.239 233.112 243.506 233.614C243.772 234.104 244.13 234.483 244.578 234.75C245.026 235.006 245.522 235.134 246.066 235.134C246.61 235.134 247.106 235.006 247.554 234.75C248.012 234.483 248.375 234.104 248.642 233.614C248.908 233.112 249.042 232.531 249.042 231.87ZM258.696 228.926C258.952 228.424 259.314 228.035 259.784 227.758C260.264 227.48 260.845 227.342 261.528 227.342V228.846H261.144C259.512 228.846 258.696 229.731 258.696 231.502V236.27H257.24V227.502H258.696V228.926ZM271.209 231.55C271.209 231.827 271.193 232.12 271.161 232.43H264.153C264.206 233.294 264.499 233.971 265.033 234.462C265.577 234.942 266.233 235.182 267.001 235.182C267.63 235.182 268.153 235.038 268.569 234.75C268.995 234.451 269.294 234.056 269.465 233.566H271.033C270.798 234.408 270.329 235.096 269.625 235.63C268.921 236.152 268.046 236.414 267.001 236.414C266.169 236.414 265.422 236.227 264.761 235.854C264.11 235.48 263.598 234.952 263.225 234.27C262.851 233.576 262.665 232.776 262.665 231.87C262.665 230.963 262.846 230.168 263.209 229.486C263.571 228.803 264.078 228.28 264.729 227.918C265.39 227.544 266.147 227.358 267.001 227.358C267.833 227.358 268.569 227.539 269.209 227.902C269.849 228.264 270.339 228.766 270.681 229.406C271.033 230.035 271.209 230.75 271.209 231.55ZM269.705 231.246C269.705 230.691 269.582 230.216 269.337 229.822C269.091 229.416 268.755 229.112 268.329 228.91C267.913 228.696 267.449 228.59 266.937 228.59C266.201 228.59 265.571 228.824 265.049 229.294C264.537 229.763 264.243 230.414 264.169 231.246H269.705ZM272.586 231.854C272.586 230.958 272.768 230.174 273.13 229.502C273.493 228.819 273.989 228.291 274.618 227.918C275.258 227.544 275.968 227.358 276.746 227.358C277.514 227.358 278.181 227.523 278.746 227.854C279.312 228.184 279.733 228.6 280.01 229.102V227.502H281.482V236.27H280.01V234.638C279.722 235.15 279.29 235.576 278.714 235.918C278.149 236.248 277.488 236.414 276.73 236.414C275.952 236.414 275.248 236.222 274.618 235.838C273.989 235.454 273.493 234.915 273.13 234.222C272.768 233.528 272.586 232.739 272.586 231.854ZM280.01 231.87C280.01 231.208 279.877 230.632 279.61 230.142C279.344 229.651 278.981 229.278 278.522 229.022C278.074 228.755 277.578 228.622 277.034 228.622C276.49 228.622 275.994 228.75 275.546 229.006C275.098 229.262 274.741 229.635 274.474 230.126C274.208 230.616 274.074 231.192 274.074 231.854C274.074 232.526 274.208 233.112 274.474 233.614C274.741 234.104 275.098 234.483 275.546 234.75C275.994 235.006 276.49 235.134 277.034 235.134C277.578 235.134 278.074 235.006 278.522 234.75C278.981 234.483 279.344 234.104 279.61 233.614C279.877 233.112 280.01 232.531 280.01 231.87ZM283.399 231.854C283.399 230.958 283.58 230.174 283.943 229.502C284.306 228.819 284.802 228.291 285.431 227.918C286.071 227.544 286.786 227.358 287.575 227.358C288.258 227.358 288.892 227.518 289.479 227.838C290.066 228.147 290.514 228.558 290.823 229.07V224.43H292.295V236.27H290.823V234.622C290.535 235.144 290.108 235.576 289.543 235.918C288.978 236.248 288.316 236.414 287.559 236.414C286.78 236.414 286.071 236.222 285.431 235.838C284.802 235.454 284.306 234.915 283.943 234.222C283.58 233.528 283.399 232.739 283.399 231.854ZM290.823 231.87C290.823 231.208 290.69 230.632 290.423 230.142C290.156 229.651 289.794 229.278 289.335 229.022C288.887 228.755 288.391 228.622 287.847 228.622C287.303 228.622 286.807 228.75 286.359 229.006C285.911 229.262 285.554 229.635 285.287 230.126C285.02 230.616 284.887 231.192 284.887 231.854C284.887 232.526 285.02 233.112 285.287 233.614C285.554 234.104 285.911 234.483 286.359 234.75C286.807 235.006 287.303 235.134 287.847 235.134C288.391 235.134 288.887 235.006 289.335 234.75C289.794 234.483 290.156 234.104 290.423 233.614C290.69 233.112 290.823 232.531 290.823 231.87ZM302.755 231.55C302.755 231.827 302.739 232.12 302.707 232.43H295.699C295.753 233.294 296.046 233.971 296.579 234.462C297.123 234.942 297.779 235.182 298.547 235.182C299.177 235.182 299.699 235.038 300.115 234.75C300.542 234.451 300.841 234.056 301.011 233.566H302.579C302.345 234.408 301.875 235.096 301.171 235.63C300.467 236.152 299.593 236.414 298.547 236.414C297.715 236.414 296.969 236.227 296.307 235.854C295.657 235.48 295.145 234.952 294.771 234.27C294.398 233.576 294.211 232.776 294.211 231.87C294.211 230.963 294.393 230.168 294.755 229.486C295.118 228.803 295.625 228.28 296.275 227.918C296.937 227.544 297.694 227.358 298.547 227.358C299.379 227.358 300.115 227.539 300.755 227.902C301.395 228.264 301.886 228.766 302.227 229.406C302.579 230.035 302.755 230.75 302.755 231.55ZM301.251 231.246C301.251 230.691 301.129 230.216 300.883 229.822C300.638 229.416 300.302 229.112 299.875 228.91C299.459 228.696 298.995 228.59 298.483 228.59C297.747 228.59 297.118 228.824 296.595 229.294C296.083 229.763 295.79 230.414 295.715 231.246H301.251ZM306.133 228.926C306.389 228.424 306.752 228.035 307.221 227.758C307.701 227.48 308.283 227.342 308.965 227.342V228.846H308.581C306.949 228.846 306.133 229.731 306.133 231.502V236.27H304.677V227.502H306.133V228.926ZM326.592 227.502L323.856 236.27H322.352L320.24 229.31L318.128 236.27H316.624L313.872 227.502H315.36L317.376 234.862L319.552 227.502H321.04L323.168 234.878L325.152 227.502H326.592ZM328.789 226.078C328.511 226.078 328.277 225.982 328.085 225.79C327.893 225.598 327.797 225.363 327.797 225.086C327.797 224.808 327.893 224.574 328.085 224.382C328.277 224.19 328.511 224.094 328.789 224.094C329.055 224.094 329.279 224.19 329.461 224.382C329.653 224.574 329.749 224.808 329.749 225.086C329.749 225.363 329.653 225.598 329.461 225.79C329.279 225.982 329.055 226.078 328.789 226.078ZM329.493 227.502V236.27H328.037V227.502H329.493ZM333.43 224.43V236.27H331.974V224.43H333.43ZM337.368 224.43V236.27H335.912V224.43H337.368ZM35.2505 255.134C35.5492 254.611 35.9865 254.184 36.5625 253.854C37.1385 253.523 37.7945 253.358 38.5305 253.358C39.3198 253.358 40.0292 253.544 40.6585 253.918C41.2878 254.291 41.7838 254.819 42.1465 255.502C42.5092 256.174 42.6905 256.958 42.6905 257.854C42.6905 258.739 42.5092 259.528 42.1465 260.222C41.7838 260.915 41.2825 261.454 40.6425 261.838C40.0132 262.222 39.3092 262.414 38.5305 262.414C37.7732 262.414 37.1065 262.248 36.5305 261.918C35.9652 261.587 35.5385 261.166 35.2505 260.654V262.27H33.7945V250.43H35.2505V255.134ZM41.2025 257.854C41.2025 257.192 41.0692 256.616 40.8025 256.126C40.5358 255.635 40.1732 255.262 39.7145 255.006C39.2665 254.75 38.7705 254.622 38.2265 254.622C37.6932 254.622 37.1972 254.755 36.7385 255.022C36.2905 255.278 35.9278 255.656 35.6505 256.158C35.3838 256.648 35.2505 257.219 35.2505 257.87C35.2505 258.531 35.3838 259.112 35.6505 259.614C35.9278 260.104 36.2905 260.483 36.7385 260.75C37.1972 261.006 37.6932 261.134 38.2265 261.134C38.7705 261.134 39.2665 261.006 39.7145 260.75C40.1732 260.483 40.5358 260.104 40.8025 259.614C41.0692 259.112 41.2025 258.526 41.2025 257.854ZM52.607 257.55C52.607 257.827 52.591 258.12 52.559 258.43H45.551C45.6043 259.294 45.8977 259.971 46.431 260.462C46.975 260.942 47.631 261.182 48.399 261.182C49.0283 261.182 49.551 261.038 49.967 260.75C50.3937 260.451 50.6923 260.056 50.863 259.566H52.431C52.1963 260.408 51.727 261.096 51.023 261.63C50.319 262.152 49.4443 262.414 48.399 262.414C47.567 262.414 46.8203 262.227 46.159 261.854C45.5083 261.48 44.9963 260.952 44.623 260.27C44.2497 259.576 44.063 258.776 44.063 257.87C44.063 256.963 44.2443 256.168 44.607 255.486C44.9697 254.803 45.4763 254.28 46.127 253.918C46.7883 253.544 47.5457 253.358 48.399 253.358C49.231 253.358 49.967 253.539 50.607 253.902C51.247 254.264 51.7377 254.766 52.079 255.406C52.431 256.035 52.607 256.75 52.607 257.55ZM51.103 257.246C51.103 256.691 50.9803 256.216 50.735 255.822C50.4897 255.416 50.1537 255.112 49.727 254.91C49.311 254.696 48.847 254.59 48.335 254.59C47.599 254.59 46.9697 254.824 46.447 255.294C45.935 255.763 45.6417 256.414 45.567 257.246H51.103ZM58.2505 257.854C58.2505 256.958 58.4318 256.174 58.7945 255.502C59.1572 254.819 59.6532 254.291 60.2825 253.918C60.9225 253.544 61.6372 253.358 62.4265 253.358C63.1092 253.358 63.7438 253.518 64.3305 253.838C64.9172 254.147 65.3652 254.558 65.6745 255.07V250.43H67.1465V262.27H65.6745V260.622C65.3865 261.144 64.9598 261.576 64.3945 261.918C63.8292 262.248 63.1678 262.414 62.4105 262.414C61.6318 262.414 60.9225 262.222 60.2825 261.838C59.6532 261.454 59.1572 260.915 58.7945 260.222C58.4318 259.528 58.2505 258.739 58.2505 257.854ZM65.6745 257.87C65.6745 257.208 65.5412 256.632 65.2745 256.142C65.0078 255.651 64.6452 255.278 64.1865 255.022C63.7385 254.755 63.2425 254.622 62.6985 254.622C62.1545 254.622 61.6585 254.75 61.2105 255.006C60.7625 255.262 60.4052 255.635 60.1385 256.126C59.8718 256.616 59.7385 257.192 59.7385 257.854C59.7385 258.526 59.8718 259.112 60.1385 259.614C60.4052 260.104 60.7625 260.483 61.2105 260.75C61.6585 261.006 62.1545 261.134 62.6985 261.134C63.2425 261.134 63.7385 261.006 64.1865 260.75C64.6452 260.483 65.0078 260.104 65.2745 259.614C65.5412 259.112 65.6745 258.531 65.6745 257.87ZM70.359 252.078C70.0817 252.078 69.847 251.982 69.655 251.79C69.463 251.598 69.367 251.363 69.367 251.086C69.367 250.808 69.463 250.574 69.655 250.382C69.847 250.19 70.0817 250.094 70.359 250.094C70.6257 250.094 70.8497 250.19 71.031 250.382C71.223 250.574 71.319 250.808 71.319 251.086C71.319 251.363 71.223 251.598 71.031 251.79C70.8497 251.982 70.6257 252.078 70.359 252.078ZM71.063 253.502V262.27H69.607V253.502H71.063ZM76.6485 262.414C75.9765 262.414 75.3738 262.302 74.8405 262.078C74.3072 261.843 73.8858 261.523 73.5765 261.118C73.2672 260.702 73.0965 260.227 73.0645 259.694H74.5685C74.6112 260.131 74.8138 260.488 75.1765 260.766C75.5498 261.043 76.0352 261.182 76.6325 261.182C77.1872 261.182 77.6245 261.059 77.9445 260.814C78.2645 260.568 78.4245 260.259 78.4245 259.886C78.4245 259.502 78.2538 259.219 77.9125 259.038C77.5712 258.846 77.0432 258.659 76.3285 258.478C75.6778 258.307 75.1445 258.136 74.7285 257.966C74.3232 257.784 73.9712 257.523 73.6725 257.182C73.3845 256.83 73.2405 256.371 73.2405 255.806C73.2405 255.358 73.3738 254.947 73.6405 254.574C73.9072 254.2 74.2858 253.907 74.7765 253.694C75.2672 253.47 75.8272 253.358 76.4565 253.358C77.4272 253.358 78.2112 253.603 78.8085 254.094C79.4058 254.584 79.7258 255.256 79.7685 256.11H78.3125C78.2805 255.651 78.0938 255.283 77.7525 255.006C77.4218 254.728 76.9738 254.59 76.4085 254.59C75.8858 254.59 75.4698 254.702 75.1605 254.926C74.8512 255.15 74.6965 255.443 74.6965 255.806C74.6965 256.094 74.7872 256.334 74.9685 256.526C75.1605 256.707 75.3952 256.856 75.6725 256.974C75.9605 257.08 76.3552 257.203 76.8565 257.342C77.4858 257.512 77.9978 257.683 78.3925 257.854C78.7872 258.014 79.1232 258.259 79.4005 258.59C79.6885 258.92 79.8378 259.352 79.8485 259.886C79.8485 260.366 79.7152 260.798 79.4485 261.182C79.1818 261.566 78.8032 261.87 78.3125 262.094C77.8325 262.307 77.2778 262.414 76.6485 262.414ZM83.6799 254.702V259.87C83.6799 260.296 83.7705 260.6 83.9519 260.782C84.1332 260.952 84.4479 261.038 84.8959 261.038H85.9679V262.27H84.6559C83.8452 262.27 83.2372 262.083 82.8319 261.71C82.4265 261.336 82.2239 260.723 82.2239 259.87V254.702H81.0879V253.502H82.2239V251.294H83.6799V253.502H85.9679V254.702H83.6799ZM89.188 254.926C89.444 254.424 89.8067 254.035 90.276 253.758C90.756 253.48 91.3373 253.342 92.02 253.342V254.846H91.636C90.004 254.846 89.188 255.731 89.188 257.502V262.27H87.732V253.502H89.188V254.926ZM93.1568 257.854C93.1568 256.958 93.3381 256.174 93.7008 255.502C94.0634 254.819 94.5594 254.291 95.1888 253.918C95.8288 253.544 96.5381 253.358 97.3168 253.358C98.0848 253.358 98.7514 253.523 99.3168 253.854C99.8821 254.184 100.303 254.6 100.581 255.102V253.502H102.053V262.27H100.581V260.638C100.293 261.15 99.8608 261.576 99.2848 261.918C98.7194 262.248 98.0581 262.414 97.3008 262.414C96.5221 262.414 95.8181 262.222 95.1888 261.838C94.5594 261.454 94.0634 260.915 93.7008 260.222C93.3381 259.528 93.1568 258.739 93.1568 257.854ZM100.581 257.87C100.581 257.208 100.447 256.632 100.181 256.142C99.9141 255.651 99.5514 255.278 99.0928 255.022C98.6448 254.755 98.1488 254.622 97.6048 254.622C97.0608 254.622 96.5648 254.75 96.1168 255.006C95.6688 255.262 95.3114 255.635 95.0448 256.126C94.7781 256.616 94.6448 257.192 94.6448 257.854C94.6448 258.526 94.7781 259.112 95.0448 259.614C95.3114 260.104 95.6688 260.483 96.1168 260.75C96.5648 261.006 97.0608 261.134 97.6048 261.134C98.1488 261.134 98.6448 261.006 99.0928 260.75C99.5514 260.483 99.9141 260.104 100.181 259.614C100.447 259.112 100.581 258.531 100.581 257.87ZM103.969 257.87C103.969 256.963 104.151 256.174 104.513 255.502C104.876 254.819 105.377 254.291 106.017 253.918C106.668 253.544 107.409 253.358 108.241 253.358C109.319 253.358 110.204 253.619 110.897 254.142C111.601 254.664 112.065 255.39 112.289 256.318H110.721C110.572 255.784 110.279 255.363 109.841 255.054C109.415 254.744 108.881 254.59 108.241 254.59C107.409 254.59 106.737 254.878 106.225 255.454C105.713 256.019 105.457 256.824 105.457 257.87C105.457 258.926 105.713 259.742 106.225 260.318C106.737 260.894 107.409 261.182 108.241 261.182C108.881 261.182 109.415 261.032 109.841 260.734C110.268 260.435 110.561 260.008 110.721 259.454H112.289C112.055 260.35 111.585 261.07 110.881 261.614C110.177 262.147 109.297 262.414 108.241 262.414C107.409 262.414 106.668 262.227 106.017 261.854C105.377 261.48 104.876 260.952 104.513 260.27C104.151 259.587 103.969 258.787 103.969 257.87ZM116.008 254.702V259.87C116.008 260.296 116.099 260.6 116.28 260.782C116.461 260.952 116.776 261.038 117.224 261.038H118.296V262.27H116.984C116.173 262.27 115.565 262.083 115.16 261.71C114.755 261.336 114.552 260.723 114.552 259.87V254.702H113.416V253.502H114.552V251.294H116.008V253.502H118.296V254.702H116.008ZM128.06 257.55C128.06 257.827 128.044 258.12 128.012 258.43H121.004C121.057 259.294 121.351 259.971 121.884 260.462C122.428 260.942 123.084 261.182 123.852 261.182C124.481 261.182 125.004 261.038 125.42 260.75C125.847 260.451 126.145 260.056 126.316 259.566H127.884C127.649 260.408 127.18 261.096 126.476 261.63C125.772 262.152 124.897 262.414 123.852 262.414C123.02 262.414 122.273 262.227 121.612 261.854C120.961 261.48 120.449 260.952 120.076 260.27C119.703 259.576 119.516 258.776 119.516 257.87C119.516 256.963 119.697 256.168 120.06 255.486C120.423 254.803 120.929 254.28 121.58 253.918C122.241 253.544 122.999 253.358 123.852 253.358C124.684 253.358 125.42 253.539 126.06 253.902C126.7 254.264 127.191 254.766 127.532 255.406C127.884 256.035 128.06 256.75 128.06 257.55ZM126.556 257.246C126.556 256.691 126.433 256.216 126.188 255.822C125.943 255.416 125.607 255.112 125.18 254.91C124.764 254.696 124.3 254.59 123.788 254.59C123.052 254.59 122.423 254.824 121.9 255.294C121.388 255.763 121.095 256.414 121.02 257.246H126.556ZM129.438 257.854C129.438 256.958 129.619 256.174 129.982 255.502C130.345 254.819 130.841 254.291 131.47 253.918C132.11 253.544 132.825 253.358 133.614 253.358C134.297 253.358 134.931 253.518 135.518 253.838C136.105 254.147 136.553 254.558 136.862 255.07V250.43H138.334V262.27H136.862V260.622C136.574 261.144 136.147 261.576 135.582 261.918C135.017 262.248 134.355 262.414 133.598 262.414C132.819 262.414 132.11 262.222 131.47 261.838C130.841 261.454 130.345 260.915 129.982 260.222C129.619 259.528 129.438 258.739 129.438 257.854ZM136.862 257.87C136.862 257.208 136.729 256.632 136.462 256.142C136.195 255.651 135.833 255.278 135.374 255.022C134.926 254.755 134.43 254.622 133.886 254.622C133.342 254.622 132.846 254.75 132.398 255.006C131.95 255.262 131.593 255.635 131.326 256.126C131.059 256.616 130.926 257.192 130.926 257.854C130.926 258.526 131.059 259.112 131.326 259.614C131.593 260.104 131.95 260.483 132.398 260.75C132.846 261.006 133.342 261.134 133.886 261.134C134.43 261.134 134.926 261.006 135.374 260.75C135.833 260.483 136.195 260.104 136.462 259.614C136.729 259.112 136.862 258.531 136.862 257.87ZM146.516 255.134C146.815 254.611 147.252 254.184 147.828 253.854C148.404 253.523 149.06 253.358 149.796 253.358C150.585 253.358 151.295 253.544 151.924 253.918C152.553 254.291 153.049 254.819 153.412 255.502C153.775 256.174 153.956 256.958 153.956 257.854C153.956 258.739 153.775 259.528 153.412 260.222C153.049 260.915 152.548 261.454 151.908 261.838C151.279 262.222 150.575 262.414 149.796 262.414C149.039 262.414 148.372 262.248 147.796 261.918C147.231 261.587 146.804 261.166 146.516 260.654V262.27H145.06V250.43H146.516V255.134ZM152.468 257.854C152.468 257.192 152.335 256.616 152.068 256.126C151.801 255.635 151.439 255.262 150.98 255.006C150.532 254.75 150.036 254.622 149.492 254.622C148.959 254.622 148.463 254.755 148.004 255.022C147.556 255.278 147.193 255.656 146.916 256.158C146.649 256.648 146.516 257.219 146.516 257.87C146.516 258.531 146.649 259.112 146.916 259.614C147.193 260.104 147.556 260.483 148.004 260.75C148.463 261.006 148.959 261.134 149.492 261.134C150.036 261.134 150.532 261.006 150.98 260.75C151.439 260.483 151.801 260.104 152.068 259.614C152.335 259.112 152.468 258.526 152.468 257.854ZM163.425 253.502L158.145 266.398H156.641L158.369 262.174L154.833 253.502H156.449L159.201 260.606L161.921 253.502H163.425ZM170.93 254.702V259.87C170.93 260.296 171.021 260.6 171.202 260.782C171.383 260.952 171.698 261.038 172.146 261.038H173.218V262.27H171.906C171.095 262.27 170.487 262.083 170.082 261.71C169.677 261.336 169.474 260.723 169.474 259.87V254.702H168.338V253.502H169.474V251.294H170.93V253.502H173.218V254.702H170.93ZM179.334 253.342C179.995 253.342 180.593 253.486 181.126 253.774C181.659 254.051 182.075 254.472 182.374 255.038C182.683 255.603 182.838 256.291 182.838 257.102V262.27H181.398V257.31C181.398 256.435 181.179 255.768 180.742 255.31C180.305 254.84 179.707 254.606 178.95 254.606C178.182 254.606 177.569 254.846 177.11 255.326C176.662 255.806 176.438 256.504 176.438 257.422V262.27H174.982V250.43H176.438V254.75C176.726 254.302 177.121 253.955 177.622 253.71C178.134 253.464 178.705 253.342 179.334 253.342ZM193.216 257.55C193.216 257.827 193.2 258.12 193.168 258.43H186.16C186.214 259.294 186.507 259.971 187.04 260.462C187.584 260.942 188.24 261.182 189.008 261.182C189.638 261.182 190.16 261.038 190.576 260.75C191.003 260.451 191.302 260.056 191.472 259.566H193.04C192.806 260.408 192.336 261.096 191.632 261.63C190.928 262.152 190.054 262.414 189.008 262.414C188.176 262.414 187.43 262.227 186.768 261.854C186.118 261.48 185.606 260.952 185.232 260.27C184.859 259.576 184.672 258.776 184.672 257.87C184.672 256.963 184.854 256.168 185.216 255.486C185.579 254.803 186.086 254.28 186.736 253.918C187.398 253.544 188.155 253.358 189.008 253.358C189.84 253.358 190.576 253.539 191.216 253.902C191.856 254.264 192.347 254.766 192.688 255.406C193.04 256.035 193.216 256.75 193.216 257.55ZM191.712 257.246C191.712 256.691 191.59 256.216 191.344 255.822C191.099 255.416 190.763 255.112 190.336 254.91C189.92 254.696 189.456 254.59 188.944 254.59C188.208 254.59 187.579 254.824 187.056 255.294C186.544 255.763 186.251 256.414 186.176 257.246H191.712ZM200.86 254.926C201.116 254.424 201.479 254.035 201.948 253.758C202.428 253.48 203.009 253.342 203.692 253.342V254.846H203.308C201.676 254.846 200.86 255.731 200.86 257.502V262.27H199.404V253.502H200.86V254.926ZM213.373 257.55C213.373 257.827 213.357 258.12 213.325 258.43H206.317C206.37 259.294 206.663 259.971 207.197 260.462C207.741 260.942 208.397 261.182 209.165 261.182C209.794 261.182 210.317 261.038 210.733 260.75C211.159 260.451 211.458 260.056 211.629 259.566H213.197C212.962 260.408 212.493 261.096 211.789 261.63C211.085 262.152 210.21 262.414 209.165 262.414C208.333 262.414 207.586 262.227 206.925 261.854C206.274 261.48 205.762 260.952 205.389 260.27C205.015 259.576 204.829 258.776 204.829 257.87C204.829 256.963 205.01 256.168 205.373 255.486C205.735 254.803 206.242 254.28 206.893 253.918C207.554 253.544 208.311 253.358 209.165 253.358C209.997 253.358 210.733 253.539 211.373 253.902C212.013 254.264 212.503 254.766 212.845 255.406C213.197 256.035 213.373 256.75 213.373 257.55ZM211.869 257.246C211.869 256.691 211.746 256.216 211.501 255.822C211.255 255.416 210.919 255.112 210.493 254.91C210.077 254.696 209.613 254.59 209.101 254.59C208.365 254.59 207.735 254.824 207.213 255.294C206.701 255.763 206.407 256.414 206.333 257.246H211.869ZM214.751 257.854C214.751 256.958 214.932 256.174 215.295 255.502C215.657 254.819 216.153 254.291 216.783 253.918C217.423 253.544 218.132 253.358 218.911 253.358C219.679 253.358 220.345 253.523 220.911 253.854C221.476 254.184 221.897 254.6 222.175 255.102V253.502H223.647V262.27H222.175V260.638C221.887 261.15 221.455 261.576 220.879 261.918C220.313 262.248 219.652 262.414 218.895 262.414C218.116 262.414 217.412 262.222 216.783 261.838C216.153 261.454 215.657 260.915 215.295 260.222C214.932 259.528 214.751 258.739 214.751 257.854ZM222.175 257.87C222.175 257.208 222.041 256.632 221.775 256.142C221.508 255.651 221.145 255.278 220.687 255.022C220.239 254.755 219.743 254.622 219.199 254.622C218.655 254.622 218.159 254.75 217.711 255.006C217.263 255.262 216.905 255.635 216.639 256.126C216.372 256.616 216.239 257.192 216.239 257.854C216.239 258.526 216.372 259.112 216.639 259.614C216.905 260.104 217.263 260.483 217.711 260.75C218.159 261.006 218.655 261.134 219.199 261.134C219.743 261.134 220.239 261.006 220.687 260.75C221.145 260.483 221.508 260.104 221.775 259.614C222.041 259.112 222.175 258.531 222.175 257.87ZM225.563 257.854C225.563 256.958 225.744 256.174 226.107 255.502C226.47 254.819 226.966 254.291 227.595 253.918C228.235 253.544 228.95 253.358 229.739 253.358C230.422 253.358 231.056 253.518 231.643 253.838C232.23 254.147 232.678 254.558 232.987 255.07V250.43H234.459V262.27H232.987V260.622C232.699 261.144 232.272 261.576 231.707 261.918C231.142 262.248 230.48 262.414 229.723 262.414C228.944 262.414 228.235 262.222 227.595 261.838C226.966 261.454 226.47 260.915 226.107 260.222C225.744 259.528 225.563 258.739 225.563 257.854ZM232.987 257.87C232.987 257.208 232.854 256.632 232.587 256.142C232.32 255.651 231.958 255.278 231.499 255.022C231.051 254.755 230.555 254.622 230.011 254.622C229.467 254.622 228.971 254.75 228.523 255.006C228.075 255.262 227.718 255.635 227.451 256.126C227.184 256.616 227.051 257.192 227.051 257.854C227.051 258.526 227.184 259.112 227.451 259.614C227.718 260.104 228.075 260.483 228.523 260.75C228.971 261.006 229.467 261.134 230.011 261.134C230.555 261.134 231.051 261.006 231.499 260.75C231.958 260.483 232.32 260.104 232.587 259.614C232.854 259.112 232.987 258.531 232.987 257.87ZM236.376 257.854C236.376 256.958 236.557 256.174 236.92 255.502C237.282 254.819 237.778 254.291 238.408 253.918C239.048 253.544 239.757 253.358 240.536 253.358C241.304 253.358 241.97 253.523 242.536 253.854C243.101 254.184 243.522 254.6 243.8 255.102V253.502H245.272V262.27H243.8V260.638C243.512 261.15 243.08 261.576 242.504 261.918C241.938 262.248 241.277 262.414 240.52 262.414C239.741 262.414 239.037 262.222 238.408 261.838C237.778 261.454 237.282 260.915 236.92 260.222C236.557 259.528 236.376 258.739 236.376 257.854ZM243.8 257.87C243.8 257.208 243.666 256.632 243.4 256.142C243.133 255.651 242.77 255.278 242.312 255.022C241.864 254.755 241.368 254.622 240.824 254.622C240.28 254.622 239.784 254.75 239.336 255.006C238.888 255.262 238.53 255.635 238.264 256.126C237.997 256.616 237.864 257.192 237.864 257.854C237.864 258.526 237.997 259.112 238.264 259.614C238.53 260.104 238.888 260.483 239.336 260.75C239.784 261.006 240.28 261.134 240.824 261.134C241.368 261.134 241.864 261.006 242.312 260.75C242.77 260.483 243.133 260.104 243.4 259.614C243.666 259.112 243.8 258.531 243.8 257.87ZM249.188 255.134C249.487 254.611 249.924 254.184 250.5 253.854C251.076 253.523 251.732 253.358 252.468 253.358C253.257 253.358 253.967 253.544 254.596 253.918C255.225 254.291 255.721 254.819 256.084 255.502C256.447 256.174 256.628 256.958 256.628 257.854C256.628 258.739 256.447 259.528 256.084 260.222C255.721 260.915 255.22 261.454 254.58 261.838C253.951 262.222 253.247 262.414 252.468 262.414C251.711 262.414 251.044 262.248 250.468 261.918C249.903 261.587 249.476 261.166 249.188 260.654V262.27H247.732V250.43H249.188V255.134ZM255.14 257.854C255.14 257.192 255.007 256.616 254.74 256.126C254.473 255.635 254.111 255.262 253.652 255.006C253.204 254.75 252.708 254.622 252.164 254.622C251.631 254.622 251.135 254.755 250.676 255.022C250.228 255.278 249.865 255.656 249.588 256.158C249.321 256.648 249.188 257.219 249.188 257.87C249.188 258.531 249.321 259.112 249.588 259.614C249.865 260.104 250.228 260.483 250.676 260.75C251.135 261.006 251.631 261.134 252.164 261.134C252.708 261.134 253.204 261.006 253.652 260.75C254.111 260.483 254.473 260.104 254.74 259.614C255.007 259.112 255.14 258.526 255.14 257.854ZM260.001 250.43V262.27H258.545V250.43H260.001ZM270.482 257.55C270.482 257.827 270.466 258.12 270.434 258.43H263.426C263.479 259.294 263.773 259.971 264.306 260.462C264.85 260.942 265.506 261.182 266.274 261.182C266.903 261.182 267.426 261.038 267.842 260.75C268.269 260.451 268.567 260.056 268.738 259.566H270.306C270.071 260.408 269.602 261.096 268.898 261.63C268.194 262.152 267.319 262.414 266.274 262.414C265.442 262.414 264.695 262.227 264.034 261.854C263.383 261.48 262.871 260.952 262.498 260.27C262.125 259.576 261.938 258.776 261.938 257.87C261.938 256.963 262.119 256.168 262.482 255.486C262.845 254.803 263.351 254.28 264.002 253.918C264.663 253.544 265.421 253.358 266.274 253.358C267.106 253.358 267.842 253.539 268.482 253.902C269.122 254.264 269.613 254.766 269.954 255.406C270.306 256.035 270.482 256.75 270.482 257.55ZM268.978 257.246C268.978 256.691 268.855 256.216 268.61 255.822C268.365 255.416 268.029 255.112 267.602 254.91C267.186 254.696 266.722 254.59 266.21 254.59C265.474 254.59 264.845 254.824 264.322 255.294C263.81 255.763 263.517 256.414 263.442 257.246H268.978ZM276.126 257.87C276.126 256.963 276.307 256.174 276.67 255.502C277.032 254.819 277.534 254.291 278.174 253.918C278.824 253.544 279.566 253.358 280.398 253.358C281.475 253.358 282.36 253.619 283.054 254.142C283.758 254.664 284.222 255.39 284.446 256.318H282.878C282.728 255.784 282.435 255.363 281.998 255.054C281.571 254.744 281.038 254.59 280.398 254.59C279.566 254.59 278.894 254.878 278.382 255.454C277.87 256.019 277.614 256.824 277.614 257.87C277.614 258.926 277.87 259.742 278.382 260.318C278.894 260.894 279.566 261.182 280.398 261.182C281.038 261.182 281.571 261.032 281.998 260.734C282.424 260.435 282.718 260.008 282.878 259.454H284.446C284.211 260.35 283.742 261.07 283.038 261.614C282.334 262.147 281.454 262.414 280.398 262.414C279.566 262.414 278.824 262.227 278.174 261.854C277.534 261.48 277.032 260.952 276.67 260.27C276.307 259.587 276.126 258.787 276.126 257.87ZM290.212 262.414C289.391 262.414 288.644 262.227 287.972 261.854C287.311 261.48 286.788 260.952 286.404 260.27C286.031 259.576 285.844 258.776 285.844 257.87C285.844 256.974 286.036 256.184 286.42 255.502C286.815 254.808 287.348 254.28 288.02 253.918C288.692 253.544 289.444 253.358 290.276 253.358C291.108 253.358 291.86 253.544 292.532 253.918C293.204 254.28 293.732 254.803 294.116 255.486C294.511 256.168 294.708 256.963 294.708 257.87C294.708 258.776 294.506 259.576 294.1 260.27C293.706 260.952 293.167 261.48 292.484 261.854C291.802 262.227 291.044 262.414 290.212 262.414ZM290.212 261.134C290.735 261.134 291.226 261.011 291.684 260.766C292.143 260.52 292.511 260.152 292.788 259.662C293.076 259.171 293.22 258.574 293.22 257.87C293.22 257.166 293.082 256.568 292.804 256.078C292.527 255.587 292.164 255.224 291.716 254.99C291.268 254.744 290.783 254.622 290.26 254.622C289.727 254.622 289.236 254.744 288.788 254.99C288.351 255.224 287.999 255.587 287.732 256.078C287.466 256.568 287.332 257.166 287.332 257.87C287.332 258.584 287.46 259.187 287.716 259.678C287.983 260.168 288.335 260.536 288.772 260.782C289.21 261.016 289.69 261.134 290.212 261.134ZM300.895 253.342C301.961 253.342 302.825 253.667 303.487 254.318C304.148 254.958 304.479 255.886 304.479 257.102V262.27H303.039V257.31C303.039 256.435 302.82 255.768 302.383 255.31C301.945 254.84 301.348 254.606 300.591 254.606C299.823 254.606 299.209 254.846 298.751 255.326C298.303 255.806 298.079 256.504 298.079 257.422V262.27H296.623V253.502H298.079V254.75C298.367 254.302 298.756 253.955 299.247 253.71C299.748 253.464 300.297 253.342 300.895 253.342ZM308.633 254.702V259.87C308.633 260.296 308.724 260.6 308.905 260.782C309.086 260.952 309.401 261.038 309.849 261.038H310.921V262.27H309.609C308.798 262.27 308.19 262.083 307.785 261.71C307.38 261.336 307.177 260.723 307.177 259.87V254.702H306.041V253.502H307.177V251.294H308.633V253.502H310.921V254.702H308.633ZM320.685 257.55C320.685 257.827 320.669 258.12 320.637 258.43H313.629C313.682 259.294 313.976 259.971 314.509 260.462C315.053 260.942 315.709 261.182 316.477 261.182C317.106 261.182 317.629 261.038 318.045 260.75C318.472 260.451 318.77 260.056 318.941 259.566H320.509C320.274 260.408 319.805 261.096 319.101 261.63C318.397 262.152 317.522 262.414 316.477 262.414C315.645 262.414 314.898 262.227 314.237 261.854C313.586 261.48 313.074 260.952 312.701 260.27C312.328 259.576 312.141 258.776 312.141 257.87C312.141 256.963 312.322 256.168 312.685 255.486C313.048 254.803 313.554 254.28 314.205 253.918C314.866 253.544 315.624 253.358 316.477 253.358C317.309 253.358 318.045 253.539 318.685 253.902C319.325 254.264 319.816 254.766 320.157 255.406C320.509 256.035 320.685 256.75 320.685 257.55ZM319.181 257.246C319.181 256.691 319.058 256.216 318.813 255.822C318.568 255.416 318.232 255.112 317.805 254.91C317.389 254.696 316.925 254.59 316.413 254.59C315.677 254.59 315.048 254.824 314.525 255.294C314.013 255.763 313.72 256.414 313.645 257.246H319.181ZM326.879 253.342C327.946 253.342 328.81 253.667 329.471 254.318C330.132 254.958 330.463 255.886 330.463 257.102V262.27H329.023V257.31C329.023 256.435 328.804 255.768 328.367 255.31C327.93 254.84 327.332 254.606 326.575 254.606C325.807 254.606 325.194 254.846 324.735 255.326C324.287 255.806 324.063 256.504 324.063 257.422V262.27H322.607V253.502H324.063V254.75C324.351 254.302 324.74 253.955 325.231 253.71C325.732 253.464 326.282 253.342 326.879 253.342ZM334.617 254.702V259.87C334.617 260.296 334.708 260.6 334.889 260.782C335.071 260.952 335.385 261.038 335.833 261.038H336.905V262.27H335.593C334.783 262.27 334.175 262.083 333.769 261.71C333.364 261.336 333.161 260.723 333.161 259.87V254.702H332.025V253.502H333.161V251.294H334.617V253.502H336.905V254.702H334.617ZM73.2904 288.414C72.469 288.414 71.7224 288.227 71.0504 287.854C70.389 287.48 69.8664 286.952 69.4824 286.27C69.109 285.576 68.9224 284.776 68.9224 283.87C68.9224 282.974 69.1144 282.184 69.4984 281.502C69.893 280.808 70.4264 280.28 71.0984 279.918C71.7704 279.544 72.5224 279.358 73.3544 279.358C74.1864 279.358 74.9384 279.544 75.6104 279.918C76.2824 280.28 76.8104 280.803 77.1944 281.486C77.589 282.168 77.7864 282.963 77.7864 283.87C77.7864 284.776 77.5837 285.576 77.1784 286.27C76.7837 286.952 76.245 287.48 75.5624 287.854C74.8797 288.227 74.1224 288.414 73.2904 288.414ZM73.2904 287.134C73.813 287.134 74.3037 287.011 74.7624 286.766C75.221 286.52 75.589 286.152 75.8664 285.662C76.1544 285.171 76.2984 284.574 76.2984 283.87C76.2984 283.166 76.1597 282.568 75.8824 282.078C75.605 281.587 75.2424 281.224 74.7944 280.99C74.3464 280.744 73.861 280.622 73.3384 280.622C72.805 280.622 72.3144 280.744 71.8664 280.99C71.429 281.224 71.077 281.587 70.8104 282.078C70.5437 282.568 70.4104 283.166 70.4104 283.87C70.4104 284.584 70.5384 285.187 70.7944 285.678C71.061 286.168 71.413 286.536 71.8504 286.782C72.2877 287.016 72.7677 287.134 73.2904 287.134ZM83.2688 280.702H81.4288V288.27H79.9728V280.702H78.8368V279.502H79.9728V278.878C79.9728 277.896 80.2234 277.182 80.7248 276.734C81.2368 276.275 82.0528 276.046 83.1727 276.046V277.262C82.5328 277.262 82.0794 277.39 81.8128 277.646C81.5568 277.891 81.4288 278.302 81.4288 278.878V279.502H83.2688V280.702ZM88.688 283.854C88.688 282.958 88.8693 282.174 89.232 281.502C89.5947 280.819 90.0907 280.291 90.72 279.918C91.36 279.544 92.0693 279.358 92.848 279.358C93.616 279.358 94.2827 279.523 94.848 279.854C95.4133 280.184 95.8347 280.6 96.112 281.102V279.502H97.584V288.27H96.112V286.638C95.824 287.15 95.392 287.576 94.816 287.918C94.2507 288.248 93.5893 288.414 92.832 288.414C92.0533 288.414 91.3493 288.222 90.72 287.838C90.0907 287.454 89.5947 286.915 89.232 286.222C88.8693 285.528 88.688 284.739 88.688 283.854ZM96.112 283.87C96.112 283.208 95.9787 282.632 95.712 282.142C95.4453 281.651 95.0827 281.278 94.624 281.022C94.176 280.755 93.68 280.622 93.136 280.622C92.592 280.622 92.096 280.75 91.648 281.006C91.2 281.262 90.8427 281.635 90.576 282.126C90.3093 282.616 90.176 283.192 90.176 283.854C90.176 284.526 90.3093 285.112 90.576 285.614C90.8427 286.104 91.2 286.483 91.648 286.75C92.096 287.006 92.592 287.134 93.136 287.134C93.68 287.134 94.176 287.006 94.624 286.75C95.0827 286.483 95.4453 286.104 95.712 285.614C95.9787 285.112 96.112 284.531 96.112 283.87ZM105.766 281.118C106.054 280.616 106.481 280.2 107.046 279.87C107.622 279.528 108.289 279.358 109.046 279.358C109.825 279.358 110.529 279.544 111.158 279.918C111.798 280.291 112.299 280.819 112.662 281.502C113.025 282.174 113.206 282.958 113.206 283.854C113.206 284.739 113.025 285.528 112.662 286.222C112.299 286.915 111.798 287.454 111.158 287.838C110.529 288.222 109.825 288.414 109.046 288.414C108.299 288.414 107.638 288.248 107.062 287.918C106.497 287.576 106.065 287.155 105.766 286.654V292.43H104.31V279.502H105.766V281.118ZM111.718 283.854C111.718 283.192 111.585 282.616 111.318 282.126C111.051 281.635 110.689 281.262 110.23 281.006C109.782 280.75 109.286 280.622 108.742 280.622C108.209 280.622 107.713 280.755 107.254 281.022C106.806 281.278 106.443 281.656 106.166 282.158C105.899 282.648 105.766 283.219 105.766 283.87C105.766 284.531 105.899 285.112 106.166 285.614C106.443 286.104 106.806 286.483 107.254 286.75C107.713 287.006 108.209 287.134 108.742 287.134C109.286 287.134 109.782 287.006 110.23 286.75C110.689 286.483 111.051 286.104 111.318 285.614C111.585 285.112 111.718 284.526 111.718 283.854ZM114.579 283.854C114.579 282.958 114.76 282.174 115.123 281.502C115.485 280.819 115.981 280.291 116.611 279.918C117.251 279.544 117.96 279.358 118.739 279.358C119.507 279.358 120.173 279.523 120.739 279.854C121.304 280.184 121.725 280.6 122.003 281.102V279.502H123.475V288.27H122.003V286.638C121.715 287.15 121.283 287.576 120.707 287.918C120.141 288.248 119.48 288.414 118.723 288.414C117.944 288.414 117.24 288.222 116.611 287.838C115.981 287.454 115.485 286.915 115.123 286.222C114.76 285.528 114.579 284.739 114.579 283.854ZM122.003 283.87C122.003 283.208 121.869 282.632 121.603 282.142C121.336 281.651 120.973 281.278 120.515 281.022C120.067 280.755 119.571 280.622 119.027 280.622C118.483 280.622 117.987 280.75 117.539 281.006C117.091 281.262 116.733 281.635 116.467 282.126C116.2 282.616 116.067 283.192 116.067 283.854C116.067 284.526 116.2 285.112 116.467 285.614C116.733 286.104 117.091 286.483 117.539 286.75C117.987 287.006 118.483 287.134 119.027 287.134C119.571 287.134 120.067 287.006 120.515 286.75C120.973 286.483 121.336 286.104 121.603 285.614C121.869 285.112 122.003 284.531 122.003 283.87ZM129.551 279.358C130.308 279.358 130.97 279.523 131.535 279.854C132.111 280.184 132.538 280.6 132.815 281.102V279.502H134.287V288.462C134.287 289.262 134.116 289.971 133.775 290.59C133.434 291.219 132.943 291.71 132.303 292.062C131.674 292.414 130.938 292.59 130.095 292.59C128.943 292.59 127.983 292.318 127.215 291.774C126.447 291.23 125.994 290.488 125.855 289.55H127.295C127.455 290.083 127.786 290.51 128.287 290.83C128.788 291.16 129.391 291.326 130.095 291.326C130.895 291.326 131.546 291.075 132.047 290.574C132.559 290.072 132.815 289.368 132.815 288.462V286.622C132.527 287.134 132.1 287.56 131.535 287.902C130.97 288.243 130.308 288.414 129.551 288.414C128.772 288.414 128.063 288.222 127.423 287.838C126.794 287.454 126.298 286.915 125.935 286.222C125.572 285.528 125.391 284.739 125.391 283.854C125.391 282.958 125.572 282.174 125.935 281.502C126.298 280.819 126.794 280.291 127.423 279.918C128.063 279.544 128.772 279.358 129.551 279.358ZM132.815 283.87C132.815 283.208 132.682 282.632 132.415 282.142C132.148 281.651 131.786 281.278 131.327 281.022C130.879 280.755 130.383 280.622 129.839 280.622C129.295 280.622 128.799 280.75 128.351 281.006C127.903 281.262 127.546 281.635 127.279 282.126C127.012 282.616 126.879 283.192 126.879 283.854C126.879 284.526 127.012 285.112 127.279 285.614C127.546 286.104 127.903 286.483 128.351 286.75C128.799 287.006 129.295 287.134 129.839 287.134C130.383 287.134 130.879 287.006 131.327 286.75C131.786 286.483 132.148 286.104 132.415 285.614C132.682 285.112 132.815 284.531 132.815 283.87ZM144.748 283.55C144.748 283.827 144.732 284.12 144.7 284.43H137.692C137.745 285.294 138.038 285.971 138.572 286.462C139.116 286.942 139.772 287.182 140.54 287.182C141.169 287.182 141.692 287.038 142.108 286.75C142.534 286.451 142.833 286.056 143.004 285.566H144.572C144.337 286.408 143.868 287.096 143.164 287.63C142.46 288.152 141.585 288.414 140.54 288.414C139.708 288.414 138.961 288.227 138.3 287.854C137.649 287.48 137.137 286.952 136.764 286.27C136.39 285.576 136.204 284.776 136.204 283.87C136.204 282.963 136.385 282.168 136.748 281.486C137.11 280.803 137.617 280.28 138.268 279.918C138.929 279.544 139.686 279.358 140.54 279.358C141.372 279.358 142.108 279.539 142.748 279.902C143.388 280.264 143.878 280.766 144.22 281.406C144.572 282.035 144.748 282.75 144.748 283.55ZM143.244 283.246C143.244 282.691 143.121 282.216 142.876 281.822C142.63 281.416 142.294 281.112 141.868 280.91C141.452 280.696 140.988 280.59 140.476 280.59C139.74 280.59 139.11 280.824 138.588 281.294C138.076 281.763 137.782 282.414 137.708 283.246H143.244ZM162.615 279.502L159.879 288.27H158.375L156.263 281.31L154.151 288.27H152.647L149.895 279.502H151.383L153.399 286.862L155.575 279.502H157.063L159.191 286.878L161.175 279.502H162.615ZM168.412 279.342C169.073 279.342 169.671 279.486 170.204 279.774C170.737 280.051 171.153 280.472 171.452 281.038C171.761 281.603 171.916 282.291 171.916 283.102V288.27H170.476V283.31C170.476 282.435 170.257 281.768 169.82 281.31C169.383 280.84 168.785 280.606 168.028 280.606C167.26 280.606 166.647 280.846 166.188 281.326C165.74 281.806 165.516 282.504 165.516 283.422V288.27H164.06V276.43H165.516V280.75C165.804 280.302 166.199 279.955 166.7 279.71C167.212 279.464 167.783 279.342 168.412 279.342ZM182.295 283.55C182.295 283.827 182.279 284.12 182.247 284.43H175.239C175.292 285.294 175.585 285.971 176.119 286.462C176.663 286.942 177.319 287.182 178.087 287.182C178.716 287.182 179.239 287.038 179.655 286.75C180.081 286.451 180.38 286.056 180.551 285.566H182.119C181.884 286.408 181.415 287.096 180.711 287.63C180.007 288.152 179.132 288.414 178.087 288.414C177.255 288.414 176.508 288.227 175.847 287.854C175.196 287.48 174.684 286.952 174.311 286.27C173.937 285.576 173.751 284.776 173.751 283.87C173.751 282.963 173.932 282.168 174.295 281.486C174.657 280.803 175.164 280.28 175.815 279.918C176.476 279.544 177.233 279.358 178.087 279.358C178.919 279.358 179.655 279.539 180.295 279.902C180.935 280.264 181.425 280.766 181.767 281.406C182.119 282.035 182.295 282.75 182.295 283.55ZM180.791 283.246C180.791 282.691 180.668 282.216 180.423 281.822C180.177 281.416 179.841 281.112 179.415 280.91C178.999 280.696 178.535 280.59 178.023 280.59C177.287 280.59 176.657 280.824 176.135 281.294C175.623 281.763 175.329 282.414 175.255 283.246H180.791ZM188.488 279.342C189.555 279.342 190.419 279.667 191.08 280.318C191.742 280.958 192.072 281.886 192.072 283.102V288.27H190.632V283.31C190.632 282.435 190.414 281.768 189.976 281.31C189.539 280.84 188.942 280.606 188.184 280.606C187.416 280.606 186.803 280.846 186.344 281.326C185.896 281.806 185.672 282.504 185.672 283.422V288.27H184.216V279.502H185.672V280.75C185.96 280.302 186.35 279.955 186.84 279.71C187.342 279.464 187.891 279.342 188.488 279.342ZM200.172 276.43V288.27H198.716V276.43H200.172ZM206.478 288.414C205.657 288.414 204.91 288.227 204.238 287.854C203.577 287.48 203.054 286.952 202.67 286.27C202.297 285.576 202.11 284.776 202.11 283.87C202.11 282.974 202.302 282.184 202.686 281.502C203.081 280.808 203.614 280.28 204.286 279.918C204.958 279.544 205.71 279.358 206.542 279.358C207.374 279.358 208.126 279.544 208.798 279.918C209.47 280.28 209.998 280.803 210.382 281.486C210.777 282.168 210.974 282.963 210.974 283.87C210.974 284.776 210.771 285.576 210.366 286.27C209.971 286.952 209.433 287.48 208.75 287.854C208.067 288.227 207.31 288.414 206.478 288.414ZM206.478 287.134C207.001 287.134 207.491 287.011 207.95 286.766C208.409 286.52 208.777 286.152 209.054 285.662C209.342 285.171 209.486 284.574 209.486 283.87C209.486 283.166 209.347 282.568 209.07 282.078C208.793 281.587 208.43 281.224 207.982 280.99C207.534 280.744 207.049 280.622 206.526 280.622C205.993 280.622 205.502 280.744 205.054 280.99C204.617 281.224 204.265 281.587 203.998 282.078C203.731 282.568 203.598 283.166 203.598 283.87C203.598 284.584 203.726 285.187 203.982 285.678C204.249 286.168 204.601 286.536 205.038 286.782C205.475 287.016 205.955 287.134 206.478 287.134ZM216.712 288.414C215.891 288.414 215.144 288.227 214.472 287.854C213.811 287.48 213.288 286.952 212.904 286.27C212.531 285.576 212.344 284.776 212.344 283.87C212.344 282.974 212.536 282.184 212.92 281.502C213.315 280.808 213.848 280.28 214.52 279.918C215.192 279.544 215.944 279.358 216.776 279.358C217.608 279.358 218.36 279.544 219.032 279.918C219.704 280.28 220.232 280.803 220.616 281.486C221.011 282.168 221.208 282.963 221.208 283.87C221.208 284.776 221.006 285.576 220.6 286.27C220.206 286.952 219.667 287.48 218.984 287.854C218.302 288.227 217.544 288.414 216.712 288.414ZM216.712 287.134C217.235 287.134 217.726 287.011 218.184 286.766C218.643 286.52 219.011 286.152 219.288 285.662C219.576 285.171 219.72 284.574 219.72 283.87C219.72 283.166 219.582 282.568 219.304 282.078C219.027 281.587 218.664 281.224 218.216 280.99C217.768 280.744 217.283 280.622 216.76 280.622C216.227 280.622 215.736 280.744 215.288 280.99C214.851 281.224 214.499 281.587 214.232 282.078C213.966 282.568 213.832 283.166 213.832 283.87C213.832 284.584 213.96 285.187 214.216 285.678C214.483 286.168 214.835 286.536 215.272 286.782C215.71 287.016 216.19 287.134 216.712 287.134ZM228.019 288.27L224.579 284.398V288.27H223.123V276.43H224.579V283.39L227.955 279.502H229.987L225.859 283.87L230.003 288.27H228.019ZM232.109 278.078C231.832 278.078 231.597 277.982 231.405 277.79C231.213 277.598 231.117 277.363 231.117 277.086C231.117 276.808 231.213 276.574 231.405 276.382C231.597 276.19 231.832 276.094 232.109 276.094C232.376 276.094 232.6 276.19 232.781 276.382C232.973 276.574 233.069 276.808 233.069 277.086C233.069 277.363 232.973 277.598 232.781 277.79C232.6 277.982 232.376 278.078 232.109 278.078ZM232.813 279.502V288.27H231.357V279.502H232.813ZM239.567 279.342C240.633 279.342 241.497 279.667 242.159 280.318C242.82 280.958 243.151 281.886 243.151 283.102V288.27H241.711V283.31C241.711 282.435 241.492 281.768 241.055 281.31C240.617 280.84 240.02 280.606 239.263 280.606C238.495 280.606 237.881 280.846 237.423 281.326C236.975 281.806 236.751 282.504 236.751 283.422V288.27H235.295V279.502H236.751V280.75C237.039 280.302 237.428 279.955 237.919 279.71C238.42 279.464 238.969 279.342 239.567 279.342ZM249.145 279.358C249.902 279.358 250.564 279.523 251.129 279.854C251.705 280.184 252.132 280.6 252.409 281.102V279.502H253.881V288.462C253.881 289.262 253.71 289.971 253.369 290.59C253.028 291.219 252.537 291.71 251.897 292.062C251.268 292.414 250.532 292.59 249.689 292.59C248.537 292.59 247.577 292.318 246.809 291.774C246.041 291.23 245.588 290.488 245.449 289.55H246.889C247.049 290.083 247.38 290.51 247.881 290.83C248.382 291.16 248.985 291.326 249.689 291.326C250.489 291.326 251.14 291.075 251.641 290.574C252.153 290.072 252.409 289.368 252.409 288.462V286.622C252.121 287.134 251.694 287.56 251.129 287.902C250.564 288.243 249.902 288.414 249.145 288.414C248.366 288.414 247.657 288.222 247.017 287.838C246.388 287.454 245.892 286.915 245.529 286.222C245.166 285.528 244.985 284.739 244.985 283.854C244.985 282.958 245.166 282.174 245.529 281.502C245.892 280.819 246.388 280.291 247.017 279.918C247.657 279.544 248.366 279.358 249.145 279.358ZM252.409 283.87C252.409 283.208 252.276 282.632 252.009 282.142C251.742 281.651 251.38 281.278 250.921 281.022C250.473 280.755 249.977 280.622 249.433 280.622C248.889 280.622 248.393 280.75 247.945 281.006C247.497 281.262 247.14 281.635 246.873 282.126C246.606 282.616 246.473 283.192 246.473 283.854C246.473 284.526 246.606 285.112 246.873 285.614C247.14 286.104 247.497 286.483 247.945 286.75C248.393 287.006 248.889 287.134 249.433 287.134C249.977 287.134 250.473 287.006 250.921 286.75C251.38 286.483 251.742 286.104 252.009 285.614C252.276 285.112 252.409 284.531 252.409 283.87ZM260.063 283.854C260.063 282.958 260.244 282.174 260.607 281.502C260.97 280.819 261.466 280.291 262.095 279.918C262.735 279.544 263.444 279.358 264.223 279.358C264.991 279.358 265.658 279.523 266.223 279.854C266.788 280.184 267.21 280.6 267.487 281.102V279.502H268.959V288.27H267.487V286.638C267.199 287.15 266.767 287.576 266.191 287.918C265.626 288.248 264.964 288.414 264.207 288.414C263.428 288.414 262.724 288.222 262.095 287.838C261.466 287.454 260.97 286.915 260.607 286.222C260.244 285.528 260.063 284.739 260.063 283.854ZM267.487 283.87C267.487 283.208 267.354 282.632 267.087 282.142C266.82 281.651 266.458 281.278 265.999 281.022C265.551 280.755 265.055 280.622 264.511 280.622C263.967 280.622 263.471 280.75 263.023 281.006C262.575 281.262 262.218 281.635 261.951 282.126C261.684 282.616 261.551 283.192 261.551 283.854C261.551 284.526 261.684 285.112 261.951 285.614C262.218 286.104 262.575 286.483 263.023 286.75C263.471 287.006 263.967 287.134 264.511 287.134C265.055 287.134 265.551 287.006 265.999 286.75C266.458 286.483 266.82 286.104 267.087 285.614C267.354 285.112 267.487 284.531 267.487 283.87ZM273.196 280.702V285.87C273.196 286.296 273.286 286.6 273.468 286.782C273.649 286.952 273.964 287.038 274.411 287.038H275.484V288.27H274.172C273.361 288.27 272.753 288.083 272.348 287.71C271.942 287.336 271.74 286.723 271.74 285.87V280.702H270.604V279.502H271.74V277.294H273.196V279.502H275.484V280.702H273.196ZM282.265 278.078C281.988 278.078 281.753 277.982 281.561 277.79C281.369 277.598 281.273 277.363 281.273 277.086C281.273 276.808 281.369 276.574 281.561 276.382C281.753 276.19 281.988 276.094 282.265 276.094C282.532 276.094 282.756 276.19 282.937 276.382C283.129 276.574 283.225 276.808 283.225 277.086C283.225 277.363 283.129 277.598 282.937 277.79C282.756 277.982 282.532 278.078 282.265 278.078ZM282.969 279.502V288.27H281.513V279.502H282.969ZM287.227 280.702V285.87C287.227 286.296 287.317 286.6 287.499 286.782C287.68 286.952 287.995 287.038 288.443 287.038H289.515V288.27H288.203C287.392 288.27 286.784 288.083 286.379 287.71C285.973 287.336 285.771 286.723 285.771 285.87V280.702H284.635V279.502H285.771V277.294H287.227V279.502H289.515V280.702H287.227ZM294.383 288.414C293.711 288.414 293.108 288.302 292.575 288.078C292.042 287.843 291.62 287.523 291.311 287.118C291.002 286.702 290.831 286.227 290.799 285.694H292.303C292.346 286.131 292.548 286.488 292.911 286.766C293.284 287.043 293.77 287.182 294.367 287.182C294.922 287.182 295.359 287.059 295.679 286.814C295.999 286.568 296.159 286.259 296.159 285.886C296.159 285.502 295.988 285.219 295.647 285.038C295.306 284.846 294.778 284.659 294.063 284.478C293.412 284.307 292.879 284.136 292.463 283.966C292.058 283.784 291.706 283.523 291.407 283.182C291.119 282.83 290.975 282.371 290.975 281.806C290.975 281.358 291.108 280.947 291.375 280.574C291.642 280.2 292.02 279.907 292.511 279.694C293.002 279.47 293.562 279.358 294.191 279.358C295.162 279.358 295.946 279.603 296.543 280.094C297.14 280.584 297.46 281.256 297.503 282.11H296.047C296.015 281.651 295.828 281.283 295.487 281.006C295.156 280.728 294.708 280.59 294.143 280.59C293.62 280.59 293.204 280.702 292.895 280.926C292.586 281.15 292.431 281.443 292.431 281.806C292.431 282.094 292.522 282.334 292.703 282.526C292.895 282.707 293.13 282.856 293.407 282.974C293.695 283.08 294.09 283.203 294.591 283.342C295.22 283.512 295.732 283.683 296.127 283.854C296.522 284.014 296.858 284.259 297.135 284.59C297.423 284.92 297.572 285.352 297.583 285.886C297.583 286.366 297.45 286.798 297.183 287.182C296.916 287.566 296.538 287.87 296.047 288.094C295.567 288.307 295.012 288.414 294.383 288.414ZM300.102 288.366C299.825 288.366 299.59 288.27 299.398 288.078C299.206 287.886 299.11 287.651 299.11 287.374C299.11 287.096 299.206 286.862 299.398 286.67C299.59 286.478 299.825 286.382 300.102 286.382C300.369 286.382 300.593 286.478 300.774 286.67C300.966 286.862 301.062 287.096 301.062 287.374C301.062 287.651 300.966 287.886 300.774 288.078C300.593 288.27 300.369 288.366 300.102 288.366Z" fill="#747A82"/>
<path d="M74.1178 175.526C73.3898 175.526 72.7225 175.708 72.1158 176.072C71.5092 176.418 70.9805 176.921 70.5298 177.58C70.0965 178.238 69.7585 179.027 69.5158 179.946C69.2905 180.864 69.1778 181.896 69.1778 183.04C69.1778 184.218 69.2992 185.267 69.5418 186.186C69.7845 187.104 70.1225 187.893 70.5558 188.552C71.0065 189.21 71.5612 189.713 72.2198 190.06C72.8785 190.389 73.6238 190.554 74.4558 190.554C75.3572 190.554 76.1458 190.337 76.8218 189.904C77.5152 189.47 78.0872 188.872 78.5378 188.11C79.0058 187.33 79.3438 186.454 79.5518 185.484L81.3458 186.186C81.0685 187.416 80.6092 188.517 79.9678 189.488C79.3438 190.441 78.5292 191.186 77.5238 191.724C76.5185 192.261 75.3312 192.53 73.9618 192.53C72.6272 192.53 71.3965 192.304 70.2698 191.854C69.1605 191.386 68.1985 190.736 67.3838 189.904C66.5692 189.054 65.9365 188.049 65.4858 186.888C65.0352 185.726 64.8098 184.444 64.8098 183.04C64.8098 181.636 65.0438 180.353 65.5118 179.192C65.9798 178.03 66.6212 177.034 67.4358 176.202C68.2505 175.352 69.1865 174.702 70.2438 174.252C71.3185 173.784 72.4538 173.55 73.6498 173.55C74.8632 173.55 75.8772 173.749 76.6918 174.148C77.5238 174.546 78.1912 175.101 78.6938 175.812C79.2138 176.505 79.6125 177.32 79.8898 178.256L78.6678 178.1L79.1358 173.81H81.0338V179.556H78.8498C78.5898 178.741 78.2518 178.039 77.8358 177.45C77.4198 176.843 76.9085 176.375 76.3018 176.046C75.6952 175.699 74.9672 175.526 74.1178 175.526ZM89.1956 173.134V190.554C89.1956 190.606 89.2736 190.658 89.4296 190.71C89.5856 190.744 89.7676 190.77 89.9756 190.788C90.2009 190.805 90.4089 190.814 90.5996 190.814H90.6776V192.27H83.5796V190.814H83.6316C83.9436 190.814 84.2209 190.788 84.4636 190.736C84.7063 190.684 84.8969 190.597 85.0356 190.476C85.1743 190.354 85.2436 190.19 85.2436 189.982V175.682C85.2436 175.474 85.1916 175.318 85.0876 175.214C85.0009 175.092 84.8536 174.997 84.6456 174.928C84.4376 174.841 84.1603 174.772 83.8136 174.72L83.5796 174.668V173.134H89.1956ZM99.5696 192.27H92.4976V190.814H92.5236C92.7143 190.814 92.9223 190.805 93.1476 190.788C93.3729 190.77 93.5636 190.744 93.7196 190.71C93.8929 190.675 93.9796 190.632 93.9796 190.58V183.17C93.9796 182.667 93.9189 182.26 93.7976 181.948C93.6936 181.618 93.5116 181.376 93.2516 181.22C93.0089 181.064 92.6796 180.986 92.2636 180.986C91.7956 180.986 91.3536 181.098 90.9376 181.324C90.5216 181.549 90.1229 181.887 89.7416 182.338C89.3776 182.788 89.0223 183.352 88.6756 184.028V181.818C89.0569 181.159 89.4816 180.604 89.9496 180.154C90.4349 179.686 90.9723 179.33 91.5616 179.088C92.1683 178.845 92.8356 178.724 93.5636 178.724C94.4476 178.724 95.2103 178.888 95.8516 179.218C96.4929 179.53 96.9956 180.015 97.3596 180.674C97.7236 181.315 97.9056 182.13 97.9056 183.118V189.982C97.9056 190.311 98.0616 190.536 98.3736 190.658C98.6856 190.762 99.0669 190.814 99.5176 190.814H99.5696V192.27ZM110.208 184.262V185.744C109.514 185.813 108.899 185.917 108.362 186.056C107.842 186.177 107.382 186.333 106.984 186.524C106.585 186.697 106.256 186.905 105.996 187.148C105.753 187.373 105.571 187.633 105.45 187.928C105.328 188.205 105.268 188.526 105.268 188.89C105.268 189.271 105.337 189.6 105.476 189.878C105.632 190.155 105.848 190.372 106.126 190.528C106.403 190.666 106.724 190.736 107.088 190.736C107.573 190.736 107.998 190.614 108.362 190.372C108.743 190.129 109.081 189.791 109.376 189.358C109.67 188.907 109.93 188.378 110.156 187.772L110.182 189.592C109.922 190.216 109.584 190.744 109.168 191.178C108.752 191.611 108.258 191.949 107.686 192.192C107.131 192.417 106.49 192.53 105.762 192.53C104.912 192.53 104.167 192.4 103.526 192.14C102.902 191.862 102.408 191.464 102.044 190.944C101.68 190.406 101.498 189.765 101.498 189.02C101.498 188.292 101.68 187.668 102.044 187.148C102.425 186.628 102.98 186.186 103.708 185.822C104.436 185.44 105.337 185.128 106.412 184.886C107.504 184.626 108.769 184.418 110.208 184.262ZM109.87 192.27V189.618H109.584V182.832C109.584 182.277 109.497 181.835 109.324 181.506C109.168 181.159 108.934 180.916 108.622 180.778C108.31 180.622 107.92 180.544 107.452 180.544C106.758 180.544 106.178 180.691 105.71 180.986C105.259 181.28 104.912 181.636 104.67 182.052C104.548 181.878 104.488 181.705 104.488 181.532C104.505 181.358 104.557 181.202 104.644 181.064C104.73 180.925 104.852 180.804 105.008 180.7C105.181 180.578 105.38 180.5 105.606 180.466V183.17H102.382V180.414C102.642 180.206 103.014 179.972 103.5 179.712C103.985 179.452 104.592 179.226 105.32 179.036C106.048 178.828 106.888 178.724 107.842 178.724C108.639 178.724 109.367 178.81 110.026 178.984C110.702 179.14 111.291 179.4 111.794 179.764C112.314 180.11 112.712 180.57 112.99 181.142C113.284 181.696 113.432 182.372 113.432 183.17V189.904C113.432 190.112 113.492 190.276 113.614 190.398C113.752 190.502 113.934 190.58 114.16 190.632C114.402 190.684 114.68 190.718 114.992 190.736L115.07 190.762V192.27H109.87ZM126.751 178.906V182.364C126.629 182.312 126.482 182.277 126.309 182.26C126.135 182.225 125.962 182.199 125.789 182.182C125.615 182.164 125.433 182.156 125.243 182.156C124.827 182.156 124.445 182.208 124.099 182.312C123.752 182.398 123.44 182.537 123.163 182.728C122.885 182.918 122.634 183.178 122.409 183.508C122.183 183.82 121.967 184.201 121.759 184.652L121.733 183.066C121.993 182.234 122.296 181.497 122.643 180.856C122.989 180.214 123.423 179.712 123.943 179.348C124.463 178.966 125.087 178.776 125.815 178.776C126.023 178.776 126.205 178.793 126.361 178.828C126.534 178.845 126.664 178.871 126.751 178.906ZM116.663 192.27V190.814H116.715C117.183 190.814 117.564 190.762 117.859 190.658C118.171 190.536 118.327 190.311 118.327 189.982V181.532C118.327 181.324 118.275 181.168 118.171 181.064C118.067 180.942 117.911 180.847 117.703 180.778C117.495 180.708 117.226 180.63 116.897 180.544L116.663 180.492V178.984H121.967V183.066L122.253 182.78V190.19C122.253 190.38 122.357 190.519 122.565 190.606C122.79 190.692 123.041 190.753 123.319 190.788C123.613 190.805 123.873 190.814 124.099 190.814H124.385V192.27H116.663ZM132.196 176.8C131.52 176.8 130.974 176.626 130.558 176.28C130.159 175.933 129.96 175.456 129.96 174.85C129.96 174.243 130.159 173.766 130.558 173.42C130.974 173.073 131.52 172.9 132.196 172.9C132.872 172.9 133.409 173.073 133.808 173.42C134.224 173.766 134.432 174.243 134.432 174.85C134.432 175.456 134.224 175.933 133.808 176.28C133.409 176.626 132.872 176.8 132.196 176.8ZM134.25 178.984V189.982C134.25 190.311 134.406 190.536 134.718 190.658C135.03 190.762 135.42 190.814 135.888 190.814H135.914V192.27H128.66V190.814H128.686C129.154 190.814 129.535 190.762 129.83 190.658C130.142 190.536 130.298 190.311 130.298 189.982V181.532C130.298 181.22 130.185 181.003 129.96 180.882C129.734 180.76 129.37 180.648 128.868 180.544L128.634 180.492V178.984H134.25ZM137.036 180.726V179.114H137.14C137.556 179.114 137.92 179.088 138.232 179.036C138.544 178.966 138.778 178.845 138.934 178.672C139.107 178.498 139.202 178.247 139.22 177.918L141.56 178.984H146.5V180.726H137.036ZM142.964 187.694C142.964 188.404 143.042 188.968 143.198 189.384C143.371 189.8 143.605 190.103 143.9 190.294C144.212 190.467 144.584 190.554 145.018 190.554C145.364 190.554 145.685 190.519 145.98 190.45C146.274 190.38 146.508 190.32 146.682 190.268V192.088C146.543 192.157 146.344 192.226 146.084 192.296C145.841 192.365 145.555 192.417 145.226 192.452C144.896 192.504 144.532 192.53 144.134 192.53C143.198 192.53 142.34 192.391 141.56 192.114C140.78 191.819 140.156 191.325 139.688 190.632C139.237 189.921 139.012 188.968 139.012 187.772V179.452L139.194 179.27L139.22 175.37H142.964V187.694ZM157.297 189.93L156.283 191.958L155.009 193.336L149.783 181.35C149.679 181.107 149.557 180.925 149.419 180.804C149.28 180.665 149.107 180.57 148.899 180.518C148.708 180.466 148.465 180.44 148.171 180.44H148.119V178.984H155.477V180.44H155.425C155.13 180.44 154.835 180.448 154.541 180.466C154.263 180.483 154.029 180.509 153.839 180.544C153.648 180.561 153.553 180.604 153.553 180.674L157.297 189.93ZM157.297 191.802C156.794 192.946 156.3 193.934 155.815 194.766C155.329 195.598 154.835 196.274 154.333 196.794C153.847 197.314 153.327 197.695 152.773 197.938C152.218 198.198 151.62 198.328 150.979 198.328C150.493 198.328 150.086 198.276 149.757 198.172C149.427 198.068 149.167 197.946 148.977 197.808V194.818C149.046 194.835 149.185 194.887 149.393 194.974C149.618 195.078 149.895 195.173 150.225 195.26C150.554 195.364 150.909 195.416 151.291 195.416C151.689 195.416 152.071 195.355 152.435 195.234C152.799 195.13 153.154 194.93 153.501 194.636C153.847 194.358 154.185 193.951 154.515 193.414C154.861 192.894 155.199 192.226 155.529 191.412L155.945 190.398L159.923 181.012C159.923 180.89 159.836 180.795 159.663 180.726C159.507 180.639 159.29 180.57 159.013 180.518C158.735 180.466 158.449 180.44 158.155 180.44H158.077V178.984H163.355V180.44H163.329C163.103 180.44 162.887 180.474 162.679 180.544C162.471 180.613 162.28 180.734 162.107 180.908C161.951 181.081 161.803 181.315 161.665 181.61L157.297 191.802ZM172.003 192.27V190.71H172.263C172.61 190.71 172.913 190.684 173.173 190.632C173.433 190.58 173.641 190.484 173.797 190.346C173.953 190.207 174.031 190.016 174.031 189.774V176.306C174.031 176.046 173.953 175.855 173.797 175.734C173.641 175.595 173.433 175.5 173.173 175.448C172.913 175.396 172.61 175.37 172.263 175.37H172.003V173.81H179.803L183.989 188.292L183.209 187.278L187.421 173.81H195.091V175.37H194.831C194.502 175.37 194.198 175.396 193.921 175.448C193.644 175.5 193.427 175.595 193.271 175.734C193.132 175.855 193.063 176.046 193.063 176.306V189.774C193.063 190.016 193.132 190.207 193.271 190.346C193.427 190.484 193.644 190.58 193.921 190.632C194.198 190.684 194.502 190.71 194.831 190.71H195.091V192.27H187.005V190.71H187.239C187.516 190.71 187.776 190.701 188.019 190.684C188.279 190.666 188.487 190.64 188.643 190.606C188.816 190.554 188.903 190.502 188.903 190.45V174.356L189.215 174.408L183.599 192.322H181.337L175.695 174.408H176.033V190.45C176.033 190.502 176.12 190.554 176.293 190.606C176.484 190.64 176.718 190.666 176.995 190.684C177.272 190.701 177.532 190.71 177.775 190.71H177.931V192.27H172.003ZM200.862 176.8C200.186 176.8 199.64 176.626 199.224 176.28C198.825 175.933 198.626 175.456 198.626 174.85C198.626 174.243 198.825 173.766 199.224 173.42C199.64 173.073 200.186 172.9 200.862 172.9C201.538 172.9 202.075 173.073 202.474 173.42C202.89 173.766 203.098 174.243 203.098 174.85C203.098 175.456 202.89 175.933 202.474 176.28C202.075 176.626 201.538 176.8 200.862 176.8ZM202.916 178.984V189.982C202.916 190.311 203.072 190.536 203.384 190.658C203.696 190.762 204.086 190.814 204.554 190.814H204.58V192.27H197.326V190.814H197.352C197.82 190.814 198.201 190.762 198.496 190.658C198.808 190.536 198.964 190.311 198.964 189.982V181.532C198.964 181.22 198.851 181.003 198.626 180.882C198.401 180.76 198.037 180.648 197.534 180.544L197.3 180.492V178.984H202.916ZM206.326 192.27V190.814H206.378C206.69 190.814 206.967 190.788 207.21 190.736C207.453 190.684 207.643 190.597 207.782 190.476C207.921 190.354 207.99 190.19 207.99 189.982V181.532C207.99 181.306 207.938 181.142 207.834 181.038C207.73 180.934 207.574 180.847 207.366 180.778C207.158 180.708 206.889 180.63 206.56 180.544L206.326 180.492V178.984H211.63V181.818L211.916 181.922V190.58C211.916 190.632 211.994 190.675 212.15 190.71C212.306 190.744 212.497 190.77 212.722 190.788C212.947 190.805 213.147 190.814 213.32 190.814H213.398V192.27H206.326ZM222.29 192.27H215.218V190.814H215.27C215.443 190.814 215.643 190.805 215.868 190.788C216.093 190.77 216.284 190.744 216.44 190.71C216.613 190.658 216.7 190.614 216.7 190.58V183.17C216.7 182.667 216.639 182.26 216.518 181.948C216.414 181.618 216.241 181.376 215.998 181.22C215.755 181.064 215.426 180.986 215.01 180.986C214.542 180.986 214.091 181.098 213.658 181.324C213.242 181.549 212.852 181.887 212.488 182.338C212.124 182.788 211.769 183.36 211.422 184.054L211.396 181.844C211.777 181.168 212.202 180.604 212.67 180.154C213.155 179.686 213.701 179.33 214.308 179.088C214.915 178.845 215.582 178.724 216.31 178.724C217.194 178.724 217.957 178.888 218.598 179.218C219.239 179.53 219.733 180.015 220.08 180.674C220.444 181.315 220.626 182.13 220.626 183.118V189.982C220.626 190.19 220.695 190.354 220.834 190.476C220.99 190.597 221.181 190.684 221.406 190.736C221.649 190.788 221.926 190.814 222.238 190.814H222.29V192.27ZM227.623 176.8C226.947 176.8 226.401 176.626 225.985 176.28C225.586 175.933 225.387 175.456 225.387 174.85C225.387 174.243 225.586 173.766 225.985 173.42C226.401 173.073 226.947 172.9 227.623 172.9C228.299 172.9 228.836 173.073 229.235 173.42C229.651 173.766 229.859 174.243 229.859 174.85C229.859 175.456 229.651 175.933 229.235 176.28C228.836 176.626 228.299 176.8 227.623 176.8ZM229.677 178.984V189.982C229.677 190.311 229.833 190.536 230.145 190.658C230.457 190.762 230.847 190.814 231.315 190.814H231.341V192.27H224.087V190.814H224.113C224.581 190.814 224.962 190.762 225.257 190.658C225.569 190.536 225.725 190.311 225.725 189.982V181.532C225.725 181.22 225.612 181.003 225.387 180.882C225.162 180.76 224.798 180.648 224.295 180.544L224.061 180.492V178.984H229.677ZM241.223 188.968C241.223 188.673 241.136 188.422 240.963 188.214C240.79 188.006 240.556 187.832 240.261 187.694C239.966 187.538 239.628 187.408 239.247 187.304C238.866 187.2 238.467 187.096 238.051 186.992C237.514 186.853 236.976 186.697 236.439 186.524C235.919 186.333 235.434 186.09 234.983 185.796C234.55 185.501 234.194 185.111 233.917 184.626C233.657 184.14 233.527 183.542 233.527 182.832C233.527 181.948 233.752 181.202 234.203 180.596C234.654 179.972 235.295 179.504 236.127 179.192C236.959 178.862 237.938 178.698 239.065 178.698C239.966 178.698 240.746 178.767 241.405 178.906C242.064 179.044 242.601 179.209 243.017 179.4C243.45 179.573 243.754 179.738 243.927 179.894V182.624H241.015V180.31C241.258 180.292 241.448 180.318 241.587 180.388C241.726 180.457 241.812 180.552 241.847 180.674C241.899 180.795 241.916 180.934 241.899 181.09C241.882 181.228 241.838 181.376 241.769 181.532C241.578 181.289 241.344 181.09 241.067 180.934C240.807 180.76 240.512 180.639 240.183 180.57C239.854 180.483 239.481 180.44 239.065 180.44C238.337 180.44 237.782 180.587 237.401 180.882C237.037 181.176 236.855 181.566 236.855 182.052C236.855 182.381 236.942 182.658 237.115 182.884C237.306 183.092 237.557 183.265 237.869 183.404C238.198 183.542 238.562 183.672 238.961 183.794C239.36 183.898 239.776 184.01 240.209 184.132C240.746 184.27 241.284 184.435 241.821 184.626C242.358 184.799 242.852 185.042 243.303 185.354C243.754 185.648 244.109 186.03 244.369 186.498C244.646 186.948 244.785 187.512 244.785 188.188C244.785 189.089 244.551 189.869 244.083 190.528C243.615 191.169 242.93 191.663 242.029 192.01C241.128 192.356 240.036 192.53 238.753 192.53C237.852 192.53 237.028 192.46 236.283 192.322C235.555 192.183 234.922 192.01 234.385 191.802C233.865 191.576 233.432 191.351 233.085 191.126V188.162H236.049V191.256C235.754 191.117 235.529 190.961 235.373 190.788C235.217 190.614 235.113 190.45 235.061 190.294C235.026 190.12 235.026 189.964 235.061 189.826C235.113 189.67 235.2 189.557 235.321 189.488C235.581 189.782 235.876 190.025 236.205 190.216C236.552 190.406 236.933 190.545 237.349 190.632C237.782 190.718 238.25 190.762 238.753 190.762C239.256 190.762 239.689 190.701 240.053 190.58C240.434 190.441 240.72 190.242 240.911 189.982C241.119 189.704 241.223 189.366 241.223 188.968ZM246.059 180.726V179.114H246.163C246.579 179.114 246.943 179.088 247.255 179.036C247.567 178.966 247.801 178.845 247.957 178.672C248.13 178.498 248.226 178.247 248.243 177.918L250.583 178.984H255.523V180.726H246.059ZM251.987 187.694C251.987 188.404 252.065 188.968 252.221 189.384C252.394 189.8 252.628 190.103 252.923 190.294C253.235 190.467 253.608 190.554 254.041 190.554C254.388 190.554 254.708 190.519 255.003 190.45C255.298 190.38 255.532 190.32 255.705 190.268V192.088C255.566 192.157 255.367 192.226 255.107 192.296C254.864 192.365 254.578 192.417 254.249 192.452C253.92 192.504 253.556 192.53 253.157 192.53C252.221 192.53 251.363 192.391 250.583 192.114C249.803 191.819 249.179 191.325 248.711 190.632C248.26 189.921 248.035 188.968 248.035 187.772V179.452L248.217 179.27L248.243 175.37H251.987V187.694ZM267.549 178.906V182.364C267.427 182.312 267.28 182.277 267.107 182.26C266.933 182.225 266.76 182.199 266.587 182.182C266.413 182.164 266.231 182.156 266.041 182.156C265.625 182.156 265.243 182.208 264.897 182.312C264.55 182.398 264.238 182.537 263.961 182.728C263.683 182.918 263.432 183.178 263.207 183.508C262.981 183.82 262.765 184.201 262.557 184.652L262.531 183.066C262.791 182.234 263.094 181.497 263.441 180.856C263.787 180.214 264.221 179.712 264.741 179.348C265.261 178.966 265.885 178.776 266.613 178.776C266.821 178.776 267.003 178.793 267.159 178.828C267.332 178.845 267.462 178.871 267.549 178.906ZM257.461 192.27V190.814H257.513C257.981 190.814 258.362 190.762 258.657 190.658C258.969 190.536 259.125 190.311 259.125 189.982V181.532C259.125 181.324 259.073 181.168 258.969 181.064C258.865 180.942 258.709 180.847 258.501 180.778C258.293 180.708 258.024 180.63 257.695 180.544L257.461 180.492V178.984H262.765V183.066L263.051 182.78V190.19C263.051 190.38 263.155 190.519 263.363 190.606C263.588 190.692 263.839 190.753 264.117 190.788C264.411 190.805 264.671 190.814 264.897 190.814H265.183V192.27H257.461ZM272.994 176.8C272.318 176.8 271.772 176.626 271.356 176.28C270.957 175.933 270.758 175.456 270.758 174.85C270.758 174.243 270.957 173.766 271.356 173.42C271.772 173.073 272.318 172.9 272.994 172.9C273.67 172.9 274.207 173.073 274.606 173.42C275.022 173.766 275.23 174.243 275.23 174.85C275.23 175.456 275.022 175.933 274.606 176.28C274.207 176.626 273.67 176.8 272.994 176.8ZM275.048 178.984V189.982C275.048 190.311 275.204 190.536 275.516 190.658C275.828 190.762 276.218 190.814 276.686 190.814H276.712V192.27H269.458V190.814H269.484C269.952 190.814 270.333 190.762 270.628 190.658C270.94 190.536 271.096 190.311 271.096 189.982V181.532C271.096 181.22 270.983 181.003 270.758 180.882C270.533 180.76 270.169 180.648 269.666 180.544L269.432 180.492V178.984H275.048ZM282.618 185.692C282.618 186.489 282.696 187.2 282.852 187.824C283.025 188.43 283.276 188.95 283.606 189.384C283.935 189.8 284.334 190.112 284.802 190.32C285.287 190.528 285.824 190.632 286.414 190.632C287.072 190.632 287.636 190.51 288.104 190.268C288.572 190.008 288.97 189.687 289.3 189.306C289.646 188.924 289.932 188.534 290.158 188.136L291.64 189.28C291.31 189.904 290.886 190.467 290.366 190.97C289.846 191.455 289.222 191.836 288.494 192.114C287.766 192.391 286.908 192.53 285.92 192.53C284.481 192.53 283.216 192.252 282.124 191.698C281.032 191.143 280.182 190.354 279.576 189.332C278.969 188.292 278.666 187.07 278.666 185.666C278.666 184.279 278.96 183.066 279.55 182.026C280.139 180.986 280.945 180.18 281.968 179.608C283.008 179.018 284.169 178.724 285.452 178.724C286.492 178.724 287.402 178.888 288.182 179.218C288.979 179.53 289.646 180.006 290.184 180.648C290.721 181.272 291.128 182.06 291.406 183.014C291.7 183.95 291.848 185.05 291.848 186.316H282.098V184.6H288.702L288.052 185.302C288.034 184.435 287.974 183.698 287.87 183.092C287.766 182.485 287.61 182 287.402 181.636C287.211 181.254 286.951 180.986 286.622 180.83C286.31 180.656 285.937 180.57 285.504 180.57C285.105 180.57 284.724 180.674 284.36 180.882C284.013 181.09 283.71 181.41 283.45 181.844C283.19 182.26 282.982 182.788 282.826 183.43C282.687 184.071 282.618 184.825 282.618 185.692ZM301.967 188.968C301.967 188.673 301.881 188.422 301.707 188.214C301.534 188.006 301.3 187.832 301.005 187.694C300.711 187.538 300.373 187.408 299.991 187.304C299.61 187.2 299.211 187.096 298.795 186.992C298.258 186.853 297.721 186.697 297.183 186.524C296.663 186.333 296.178 186.09 295.727 185.796C295.294 185.501 294.939 185.111 294.661 184.626C294.401 184.14 294.271 183.542 294.271 182.832C294.271 181.948 294.497 181.202 294.947 180.596C295.398 179.972 296.039 179.504 296.871 179.192C297.703 178.862 298.683 178.698 299.809 178.698C300.711 178.698 301.491 178.767 302.149 178.906C302.808 179.044 303.345 179.209 303.761 179.4C304.195 179.573 304.498 179.738 304.671 179.894V182.624H301.759V180.31C302.002 180.292 302.193 180.318 302.331 180.388C302.47 180.457 302.557 180.552 302.591 180.674C302.643 180.795 302.661 180.934 302.643 181.09C302.626 181.228 302.583 181.376 302.513 181.532C302.323 181.289 302.089 181.09 301.811 180.934C301.551 180.76 301.257 180.639 300.927 180.57C300.598 180.483 300.225 180.44 299.809 180.44C299.081 180.44 298.527 180.587 298.145 180.882C297.781 181.176 297.599 181.566 297.599 182.052C297.599 182.381 297.686 182.658 297.859 182.884C298.05 183.092 298.301 183.265 298.613 183.404C298.943 183.542 299.307 183.672 299.705 183.794C300.104 183.898 300.52 184.01 300.953 184.132C301.491 184.27 302.028 184.435 302.565 184.626C303.103 184.799 303.597 185.042 304.047 185.354C304.498 185.648 304.853 186.03 305.113 186.498C305.391 186.948 305.529 187.512 305.529 188.188C305.529 189.089 305.295 189.869 304.827 190.528C304.359 191.169 303.675 191.663 302.773 192.01C301.872 192.356 300.78 192.53 299.497 192.53C298.596 192.53 297.773 192.46 297.027 192.322C296.299 192.183 295.667 192.01 295.129 191.802C294.609 191.576 294.176 191.351 293.829 191.126V188.162H296.793V191.256C296.499 191.117 296.273 190.961 296.117 190.788C295.961 190.614 295.857 190.45 295.805 190.294C295.771 190.12 295.771 189.964 295.805 189.826C295.857 189.67 295.944 189.557 296.065 189.488C296.325 189.782 296.62 190.025 296.949 190.216C297.296 190.406 297.677 190.545 298.093 190.632C298.527 190.718 298.995 190.762 299.497 190.762C300 190.762 300.433 190.701 300.797 190.58C301.179 190.441 301.465 190.242 301.655 189.982C301.863 189.704 301.967 189.366 301.967 188.968Z" fill="#232526"/>
<path d="M117.344 341.494H121.024V343.27H115.104V332.102H117.344V341.494ZM126.288 333.91V336.71H130.048V338.486H126.288V341.446H130.528V343.27H124.048V332.086H130.528V333.91H126.288ZM141.011 341.142H136.563L135.827 343.27H133.475L137.491 332.086H140.099L144.115 343.27H141.747L141.011 341.142ZM140.403 339.35L138.787 334.678L137.171 339.35H140.403ZM152.976 343.27L150.512 338.918H149.456V343.27H147.216V332.102H151.408C152.272 332.102 153.008 332.256 153.616 332.566C154.224 332.864 154.678 333.275 154.976 333.798C155.286 334.31 155.44 334.886 155.44 335.526C155.44 336.262 155.227 336.928 154.8 337.526C154.374 338.112 153.739 338.518 152.896 338.742L155.568 343.27H152.976ZM149.456 337.238H151.328C151.936 337.238 152.39 337.094 152.688 336.806C152.987 336.507 153.136 336.096 153.136 335.574C153.136 335.062 152.987 334.667 152.688 334.39C152.39 334.102 151.936 333.958 151.328 333.958H149.456V337.238ZM168.619 343.27H166.379L161.307 335.606V343.27H159.067V332.086H161.307L166.379 339.766V332.086H168.619V343.27ZM190.021 332.102V343.27H187.781V336.006L184.789 343.27H183.093L180.085 336.006V343.27H177.845V332.102H180.389L183.941 340.406L187.493 332.102H190.021ZM199.019 343.382C197.974 343.382 197.014 343.136 196.139 342.646C195.265 342.155 194.571 341.478 194.059 340.614C193.547 339.739 193.291 338.752 193.291 337.654C193.291 336.566 193.547 335.59 194.059 334.726C194.571 333.851 195.265 333.168 196.139 332.678C197.014 332.187 197.974 331.942 199.019 331.942C200.075 331.942 201.035 332.187 201.899 332.678C202.774 333.168 203.462 333.851 203.963 334.726C204.475 335.59 204.731 336.566 204.731 337.654C204.731 338.752 204.475 339.739 203.963 340.614C203.462 341.478 202.774 342.155 201.899 342.646C201.025 343.136 200.065 343.382 199.019 343.382ZM199.019 341.382C199.691 341.382 200.283 341.232 200.795 340.934C201.307 340.624 201.707 340.187 201.995 339.622C202.283 339.056 202.427 338.4 202.427 337.654C202.427 336.907 202.283 336.256 201.995 335.702C201.707 335.136 201.307 334.704 200.795 334.406C200.283 334.107 199.691 333.958 199.019 333.958C198.347 333.958 197.75 334.107 197.227 334.406C196.715 334.704 196.315 335.136 196.027 335.702C195.739 336.256 195.595 336.907 195.595 337.654C195.595 338.4 195.739 339.056 196.027 339.622C196.315 340.187 196.715 340.624 197.227 340.934C197.75 341.232 198.347 341.382 199.019 341.382ZM213.758 343.27L211.294 338.918H210.238V343.27H207.998V332.102H212.19C213.054 332.102 213.79 332.256 214.398 332.566C215.006 332.864 215.459 333.275 215.758 333.798C216.067 334.31 216.222 334.886 216.222 335.526C216.222 336.262 216.008 336.928 215.582 337.526C215.155 338.112 214.52 338.518 213.678 338.742L216.35 343.27H213.758ZM210.238 337.238H212.11C212.718 337.238 213.171 337.094 213.47 336.806C213.768 336.507 213.918 336.096 213.918 335.574C213.918 335.062 213.768 334.667 213.47 334.39C213.171 334.102 212.718 333.958 212.11 333.958H210.238V337.238ZM222.088 333.91V336.71H225.848V338.486H222.088V341.446H226.328V343.27H219.848V332.086H226.328V333.91H222.088Z" fill="#232526"/>
<circle cx="245" cy="337.27" r="11" fill="#C0304F"/>
<path d="M244 334.27L247 337.27L244 340.27" stroke="#FCFCFC" stroke-width="2" stroke-linecap="round" stroke-linejoin="round"/>
</svg>
