<svg width="24" height="25" viewBox="0 0 24 25" fill="none" xmlns="http://www.w3.org/2000/svg">
<path fill-rule="evenodd" clip-rule="evenodd" d="M15.0215 3.61305C15.5299 3.52597 16.0992 3.4969 16.6349 3.58754C17.5918 3.74942 18.4756 4.19415 19.1743 4.86091C19.631 4.87124 20.0798 4.78127 20.4769 4.653C20.8131 4.54445 21.097 4.41338 21.2959 4.30974C21.3948 4.25821 21.4713 4.21425 21.5209 4.18449C21.5457 4.16964 21.5638 4.15839 21.5745 4.1516L21.584 4.14554C21.8808 3.94781 22.276 3.9863 22.5289 4.2378C22.7818 4.48937 22.8226 4.88429 22.6263 5.18219C22.4186 5.49748 22.1303 6.05955 21.8072 6.68931C21.7564 6.78833 21.7047 6.88903 21.6524 6.9907C21.4671 7.35066 21.2771 7.71447 21.1 8.02661C20.9888 8.22259 20.8699 8.42157 20.75 8.59351V8.86729C20.7576 9.87291 20.6423 10.8733 20.4082 11.8465C20.2609 12.4589 20.0667 13.0605 19.8264 13.6458C19.204 15.1625 18.2856 16.5399 17.1249 17.6977C15.9641 18.8554 14.5844 19.7703 13.0661 20.3888C11.5492 21.0068 9.92444 21.3166 8.28659 21.3002C5.91228 21.3022 3.58791 20.6182 1.59319 19.3303C1.29939 19.1406 1.17569 18.773 1.29503 18.4443C1.41437 18.1155 1.74506 17.9129 2.09213 17.9559C2.39249 17.993 2.6949 18.0112 2.99756 18.0102C4.08501 18.0071 5.15174 17.7669 6.12561 17.3142C5.81606 17.1733 5.52052 16.9996 5.24437 16.7948C4.43265 16.1929 3.82874 15.3529 3.51667 14.3918C3.43558 14.142 3.49102 13.868 3.66283 13.6695C3.66591 13.6659 3.66902 13.6624 3.67215 13.6589C3.48862 13.4952 3.3169 13.3171 3.1588 13.1254C2.44748 12.2632 2.05581 11.1818 2.05002 10.0641L2.05 10.0602L2.05001 10.0102C2.05001 9.74431 2.19077 9.49832 2.41997 9.3636C2.47807 9.32945 2.53965 9.30374 2.603 9.2865C2.26467 8.61142 2.08873 7.86597 2.09001 7.10972C2.08961 6.25295 2.31341 5.41098 2.73917 4.66748C2.86208 4.45284 3.08291 4.3126 3.32944 4.29263C3.57597 4.27265 3.8165 4.37551 3.97236 4.56755C4.93491 5.75357 6.1362 6.72382 7.49819 7.41529C8.19833 7.77074 8.93288 8.04844 9.68867 8.24488C10.1124 8.35501 10.5428 8.43959 10.9776 8.49802C10.9584 7.77476 11.1013 7.05189 11.401 6.38396C11.8407 5.40413 12.5931 4.59796 13.5404 4.09187C13.9415 3.87754 14.474 3.70683 15.0215 3.61305ZM3.74329 11.1605C3.87294 11.5254 4.0658 11.8678 4.31586 12.1709C4.80718 12.7664 5.48913 13.174 6.24635 13.3246C6.58363 13.3917 6.83207 13.6796 6.84909 14.023C6.86612 14.3665 6.64737 14.6776 6.31837 14.7777C6.04588 14.8606 5.7667 14.9184 5.48434 14.9505C5.67093 15.191 5.8904 15.4064 6.13781 15.5899C6.699 16.006 7.37594 16.2369 8.07445 16.2503C8.39137 16.2564 8.67023 16.4611 8.77106 16.7616C8.87189 17.0621 8.7729 17.3936 8.5238 17.5896C7.47463 18.4151 6.26143 18.9908 4.97588 19.2847C6.04136 19.6259 7.15881 19.8016 8.2891 19.8002L8.2978 19.8002C9.73786 19.8151 11.1665 19.543 12.5002 18.9997C13.8339 18.4563 15.0459 17.6527 16.0656 16.6357C17.0852 15.6186 17.892 14.4086 18.4387 13.0763C18.6498 12.5621 18.8204 12.0337 18.9498 11.4957C19.1556 10.64 19.257 9.76031 19.25 8.87604L19.25 8.87018V8.34018C19.25 8.15833 19.3161 7.98267 19.4359 7.84589C19.5052 7.76685 19.6264 7.5843 19.7954 7.2864C19.956 7.00327 20.1338 6.66336 20.3187 6.30418C20.3299 6.28246 20.3411 6.26062 20.3524 6.23869C19.8728 6.34283 19.3293 6.39742 18.7594 6.33584C18.579 6.31633 18.4117 6.23205 18.2887 6.09861C17.7858 5.55327 17.1161 5.19026 16.3847 5.06652C16.0602 5.01162 15.6678 5.02418 15.2747 5.09152C14.8476 5.16468 14.4759 5.2927 14.2472 5.41487C13.593 5.76444 13.0732 6.32128 12.7695 6.99807C12.4658 7.67486 12.3953 8.4333 12.5691 9.15446C12.6245 9.38437 12.5683 9.62695 12.4173 9.80898C12.2663 9.99101 12.0383 10.0912 11.8021 10.0792C10.9587 10.0366 10.1242 9.90791 9.31135 9.69664C8.45146 9.47315 7.61572 9.15721 6.81915 8.75279C5.64637 8.15738 4.57832 7.38029 3.65348 6.4526C3.61129 6.66821 3.58987 6.88823 3.59001 7.10968L3.59001 7.1116C3.58897 7.66232 3.72412 8.20475 3.98343 8.6906C4.24274 9.17645 4.61816 9.59064 5.07627 9.8963C5.35429 10.0818 5.47602 10.4289 5.37477 10.7474C5.27351 11.0659 4.97372 11.279 4.63962 11.2699C4.33702 11.2617 4.03696 11.2249 3.74329 11.1605Z" fill="#C0304F"/>
</svg>
