<svg width="42" height="39" viewBox="0 0 42 39" fill="none" xmlns="http://www.w3.org/2000/svg">
<path fill-rule="evenodd" clip-rule="evenodd" d="M16.5137 36.4999H8.16592C5.09955 36.4999 2.74715 35.3924 3.41534 30.9347L4.19338 24.8935C4.60528 22.6693 6.02404 21.818 7.26889 21.818H17.4474C18.7105 21.818 20.0469 22.7333 20.5229 24.8935L21.3009 30.9347C21.8684 34.8889 19.5801 36.4999 16.5137 36.4999Z" stroke="#232526" stroke-width="1.5" stroke-linecap="round" stroke-linejoin="round"/>
<path d="M16.651 21.5984C16.651 19.2123 14.7167 17.278 12.3307 17.278V17.278C11.1817 17.2731 10.0781 17.7262 9.26388 18.5369C8.44969 19.3477 7.99199 20.4493 7.992 21.5984H7.992" stroke="#232526" stroke-width="1.5" stroke-linecap="round" stroke-linejoin="round"/>
<path d="M15.2963 26.1018H15.2506" stroke="#232526" stroke-width="1.5" stroke-linecap="round" stroke-linejoin="round"/>
<path d="M9.46572 26.1018H9.41995" stroke="#232526" stroke-width="1.5" stroke-linecap="round" stroke-linejoin="round"/>
<circle cx="29.5" cy="12.5" r="12.5" fill="#C0304F"/>
<path d="M27.636 15.044C28.404 14.404 29.016 13.872 29.472 13.448C29.928 13.016 30.308 12.568 30.612 12.104C30.916 11.64 31.068 11.184 31.068 10.736C31.068 10.328 30.972 10.008 30.78 9.776C30.588 9.544 30.292 9.428 29.892 9.428C29.492 9.428 29.184 9.564 28.968 9.836C28.752 10.1 28.64 10.464 28.632 10.928H27C27.032 9.968 27.316 9.24 27.852 8.744C28.396 8.248 29.084 8 29.916 8C30.828 8 31.528 8.244 32.016 8.732C32.504 9.212 32.748 9.848 32.748 10.64C32.748 11.264 32.58 11.86 32.244 12.428C31.908 12.996 31.524 13.492 31.092 13.916C30.66 14.332 30.096 14.836 29.4 15.428H32.94V16.82H27.012V15.572L27.636 15.044Z" fill="#ECF2FF"/>
</svg>
